<svg width="450" height="371" viewBox="0 0 450 371" fill="none" xmlns="http://www.w3.org/2000/svg">
<path d="M431.702 221.313C433.284 218.068 434.687 214.655 435.9 211.078C449.784 170.148 428.786 121.116 384.576 109.279C379.799 49.3119 337.613 8.17633 289.97 1.15448C235.441 -6.87877 185.488 27.7248 168.867 82.7249C148.835 75.6346 129.313 76.4985 110.915 87.2393C102.568 91.0953 94.9324 96.7844 88.0826 104.27C78.0267 115.258 71.488 129.128 68.8251 143.751C64.8808 144.373 61.005 144.994 57.3507 146.301C36.0472 153.934 22.6059 169.642 18.92 193.305C16.6262 208.038 21.256 222.735 23.8398 228.672C34.0434 252.14 57.704 265.441 81.7443 261.922C82.9413 261.748 84.6814 262.285 85.7097 263.149C86.9805 300.655 105.21 333.826 132.556 352.774C176.434 383.179 232.889 373.813 268.503 332.119C283.764 347.712 301.925 355.287 323.26 352.537C344.474 349.803 360.947 338.109 372.965 319.092C378.517 320.583 383.78 322.732 389.222 323.327C410.536 325.656 427.842 317.19 440.54 298.042C445.402 290.715 450 281.217 450 264.571C450 247.425 443.177 231.796 431.702 221.313Z" fill="url(#paint0_linear)"/>
<path d="M356.243 61.7809H303.353C301.898 61.7809 300.717 60.6009 300.717 59.147C300.717 57.6931 301.898 56.5132 303.353 56.5132H356.243C357.698 56.5132 358.88 57.6931 358.88 59.147C358.88 60.6009 357.704 61.7809 356.243 61.7809Z" fill="#ECEFF1"/>
<path d="M371.435 61.7809H363.815C362.36 61.7809 361.179 60.6009 361.179 59.147C361.179 57.6931 362.36 56.5132 363.815 56.5132H371.435C372.89 56.5132 374.072 57.6931 374.072 59.147C374.072 60.6009 372.896 61.7809 371.435 61.7809Z" fill="#ECEFF1"/>
<path d="M392.818 61.7809H379.392C377.937 61.7809 376.756 60.6009 376.756 59.147C376.756 57.6931 377.937 56.5132 379.392 56.5132H392.818C394.273 56.5132 395.454 57.6931 395.454 59.147C395.454 60.6009 394.273 61.7809 392.818 61.7809Z" fill="#ECEFF1"/>
<path d="M392.818 71.6051H342.111C340.656 71.6051 339.475 70.4251 339.475 68.9713C339.475 67.5174 340.656 66.3374 342.111 66.3374H392.818C394.273 66.3374 395.454 67.5174 395.454 68.9713C395.454 70.4251 394.273 71.6051 392.818 71.6051Z" fill="#ECEFF1"/>
<path d="M332.979 71.6051H329.921C328.465 71.6051 327.284 70.4251 327.284 68.9713C327.284 67.5174 328.465 66.3374 329.921 66.3374H332.979C334.435 66.3374 335.616 67.5174 335.616 68.9713C335.616 70.4251 334.44 71.6051 332.979 71.6051Z" fill="#ECEFF1"/>
<path d="M320.444 71.6051H312.766C311.311 71.6051 310.13 70.4251 310.13 68.9713C310.13 67.5174 311.311 66.3374 312.766 66.3374H320.444C321.9 66.3374 323.081 67.5174 323.081 68.9713C323.081 70.4251 321.905 71.6051 320.444 71.6051Z" fill="#ECEFF1"/>
<path d="M368.619 51.9616H342.111C340.656 51.9616 339.475 50.7816 339.475 49.3277C339.475 47.8738 340.656 46.6938 342.111 46.6938H368.619C370.075 46.6938 371.256 47.8738 371.256 49.3277C371.256 50.7816 370.08 51.9616 368.619 51.9616Z" fill="#ECEFF1"/>
<path d="M368.619 42.1373H361.991C360.536 42.1373 359.354 40.9574 359.354 39.5035C359.354 38.0496 360.536 36.8696 361.991 36.8696H368.619C370.075 36.8696 371.256 38.0496 371.256 39.5035C371.256 40.9574 370.08 42.1373 368.619 42.1373Z" fill="#ECEFF1"/>
<path d="M351.387 81.4293H342.111C340.656 81.4293 339.475 80.2494 339.475 78.7955C339.475 77.3416 340.656 76.1616 342.111 76.1616H351.387C352.842 76.1616 354.023 77.3416 354.023 78.7955C354.023 80.2494 352.842 81.4293 351.387 81.4293Z" fill="#ECEFF1"/>
<path d="M359.772 240.851C359.772 240.851 415.751 240.851 416.094 240.851C429.024 240.851 439.502 230.384 439.502 217.467C439.502 206.2 431.523 196.797 420.903 194.585C421.025 193.599 421.109 192.599 421.109 191.582C421.109 178.207 410.257 167.361 396.868 167.361C388.964 167.361 381.961 171.159 377.537 177.006C376.403 162.12 363.094 150.631 347.517 152.532C336.127 153.923 326.704 162.72 324.61 173.988C323.941 177.601 324.009 181.11 324.679 184.402C321.626 181.115 317.281 179.05 312.435 179.05C303.576 179.05 296.341 185.94 295.771 194.648C291.748 193.758 287.371 193.815 282.763 195.543C273.951 198.846 267.676 207.132 267.312 216.525C266.79 229.868 277.463 240.846 290.699 240.846C291.706 240.846 295.239 240.846 296.051 240.846H344.659" fill="white"/>
<path d="M416.094 243.485H359.771C358.316 243.485 357.135 242.305 357.135 240.851C357.135 239.397 358.316 238.217 359.771 238.217H416.094C427.547 238.217 436.859 228.904 436.859 217.467C436.859 207.701 429.925 199.157 420.36 197.166C419.015 196.887 418.113 195.622 418.282 194.258C418.393 193.378 418.467 192.488 418.467 191.582C418.467 179.677 408.775 169.995 396.857 169.995C390.044 169.995 383.769 173.129 379.625 178.597C378.965 179.466 377.821 179.846 376.782 179.535C375.728 179.224 374.979 178.302 374.895 177.212C374.404 170.69 371.209 164.569 366.131 160.408C360.995 156.204 354.482 154.339 347.822 155.156C337.561 156.409 329.071 164.353 327.188 174.483C326.603 177.649 326.624 180.81 327.252 183.886C327.484 185.045 326.925 186.214 325.87 186.751C324.831 187.299 323.545 187.073 322.733 186.204C320.028 183.296 316.368 181.694 312.424 181.694C305.041 181.694 298.877 187.468 298.392 194.832C298.339 195.601 297.959 196.307 297.342 196.771C296.731 197.234 295.94 197.387 295.191 197.234C291.21 196.349 287.445 196.613 283.68 198.019C275.781 200.98 270.254 208.465 269.938 216.64C269.711 222.351 271.768 227.75 275.722 231.859C279.672 235.962 284.993 238.228 290.693 238.228H344.653C346.108 238.228 347.29 239.407 347.29 240.861C347.29 242.315 346.108 243.495 344.653 243.495H290.698C283.553 243.495 276.883 240.661 271.926 235.509C266.969 230.363 264.39 223.589 264.67 216.435C265.076 206.168 271.973 196.786 281.834 193.089C285.636 191.661 289.549 191.187 293.546 191.619C295.455 182.901 303.259 176.422 312.434 176.422C315.619 176.422 318.73 177.217 321.504 178.697C321.525 176.98 321.694 175.252 322.021 173.524C324.32 161.161 334.671 151.463 347.195 149.93C355.315 148.929 363.23 151.21 369.484 156.341C374.225 160.223 377.621 165.512 379.224 171.354C384.07 167.098 390.271 164.738 396.873 164.738C411.696 164.738 423.756 176.785 423.756 191.592C423.756 191.93 423.745 192.267 423.735 192.604C434.529 195.912 442.143 206.021 442.143 217.478C442.138 231.811 430.453 243.485 416.094 243.485Z" fill="#263238"/>
<path d="M346.209 189.343C337.55 188.774 330.099 194.748 329.561 202.686C329.493 203.671 329.54 204.641 329.683 205.583C328.011 203.698 325.538 202.423 322.701 202.233C317.507 201.891 313.02 205.32 312.371 209.982C311.427 209.724 310.441 209.55 309.418 209.482C301.84 208.986 295.318 214.212 294.854 221.155" fill="#FDFCEF"/>
<path d="M294.854 222.472C294.822 222.472 294.796 222.472 294.764 222.466C294.036 222.419 293.488 221.792 293.541 221.065C294.036 213.738 300.607 208.133 308.427 208.133C308.78 208.133 309.144 208.143 309.508 208.17C310.119 208.207 310.742 208.286 311.369 208.402C312.745 203.776 317.507 200.458 322.791 200.921C324.773 201.048 326.635 201.648 328.243 202.654C328.243 202.633 328.243 202.612 328.248 202.591C328.829 193.936 336.854 187.352 346.298 188.026C347.026 188.073 347.575 188.7 347.522 189.427C347.474 190.154 346.995 190.797 346.119 190.649C345.771 190.628 345.418 190.618 345.07 190.618C337.603 190.618 331.339 195.885 330.875 202.765C330.816 203.629 330.853 204.509 330.985 205.378C331.075 205.957 330.769 206.526 330.242 206.774C329.714 207.011 329.076 206.89 328.697 206.452C327.167 204.735 325.005 203.703 322.611 203.539C318.108 203.376 314.232 206.163 313.679 210.156C313.621 210.53 313.41 210.867 313.099 211.078C312.788 211.288 312.403 211.351 312.028 211.246C311.127 211.004 310.22 210.851 309.334 210.788C302.452 210.424 296.589 215.034 296.167 221.234C296.119 221.934 295.544 222.472 294.854 222.472Z" fill="#263238"/>
<path d="M425.57 197.324C417.433 193.494 408.026 196.202 404.556 203.382C404.124 204.272 403.808 205.194 403.597 206.126" fill="white"/>
<path d="M403.597 207.443C403.496 207.443 403.402 207.432 403.301 207.411C402.595 207.248 402.147 206.542 402.31 205.831C402.542 204.809 402.895 203.792 403.365 202.818C407.145 194.99 417.375 192.014 426.129 196.128C426.788 196.444 427.073 197.224 426.762 197.882C426.445 198.546 425.649 198.809 425.006 198.514C417.534 194.974 408.886 197.434 405.743 203.951C405.363 204.746 405.068 205.578 404.883 206.416C404.746 207.022 404.198 207.443 403.597 207.443Z" fill="#263238"/>
<path d="M241.04 288.234C301.091 288.234 349.772 239.603 349.772 179.614C349.772 119.625 301.091 70.9937 241.04 70.9937C180.989 70.9937 132.308 119.625 132.308 179.614C132.308 239.603 180.989 288.234 241.04 288.234Z" fill="white"/>
<path d="M241.046 291.921C179.054 291.921 128.622 241.541 128.622 179.614C128.622 117.687 179.054 67.3115 241.046 67.3115C303.037 67.3115 353.464 117.687 353.464 179.614C353.464 241.541 303.037 291.921 241.046 291.921ZM241.046 74.681C183.125 74.681 136.004 121.753 136.004 179.609C136.004 237.469 183.125 284.541 241.046 284.541C298.961 284.541 346.081 237.469 346.081 179.609C346.081 121.753 298.961 74.681 241.046 74.681Z" fill="#263238"/>
<path d="M241.041 269.439C290.701 269.439 330.959 229.223 330.959 179.614C330.959 130.005 290.701 89.7891 241.041 89.7891C191.381 89.7891 151.123 130.005 151.123 179.614C151.123 229.223 191.381 269.439 241.041 269.439Z" fill="#F44336"/>
<path d="M241.046 271.546C190.302 271.546 149.014 230.3 149.014 179.609C149.014 128.918 190.302 87.6768 241.046 87.6768C291.789 87.6768 333.073 128.918 333.073 179.609C333.073 230.3 291.789 271.546 241.046 271.546ZM241.046 91.8962C192.623 91.8962 153.237 131.246 153.237 179.609C153.237 227.982 192.628 267.327 241.046 267.327C289.464 267.327 328.849 227.977 328.849 179.609C328.849 131.246 289.459 91.8962 241.046 91.8962Z" fill="#263238"/>
<path opacity="0.35" d="M241.157 103.675C281.296 103.675 315.382 129.823 328.274 166.344C321.087 123.723 284.866 91.2744 241.157 91.2744C197.448 91.2744 161.226 123.723 154.039 166.344C166.932 129.829 201.018 103.675 241.157 103.675Z" fill="#FFCDD2"/>
<path d="M270.57 204.572L245.586 179.614L270.57 154.655C271.82 153.407 271.82 151.363 270.57 150.115C269.32 148.866 267.274 148.866 266.024 150.115L241.04 175.073L216.056 150.115C214.806 148.866 212.76 148.866 211.511 150.115C210.261 151.363 210.261 153.407 211.511 154.655L236.495 179.614L211.511 204.572C210.261 205.821 210.261 207.864 211.511 209.113C212.76 210.361 214.806 210.361 216.056 209.113L241.04 184.154L266.024 209.113C267.274 210.361 269.32 210.361 270.57 209.113C271.82 207.864 271.82 205.821 270.57 204.572Z" fill="white"/>
<path d="M268.302 149.177C269.125 149.177 269.948 149.488 270.575 150.114C271.825 151.363 271.825 153.407 270.575 154.655L245.591 179.614L270.575 204.572C271.825 205.82 271.825 207.864 270.575 209.113C269.953 209.74 269.125 210.05 268.302 210.05C267.48 210.05 266.657 209.74 266.03 209.113L241.04 184.154L216.056 209.113C215.434 209.74 214.606 210.05 213.783 210.05C212.961 210.05 212.138 209.74 211.511 209.113C210.261 207.864 210.261 205.82 211.511 204.572L236.5 179.614L211.511 154.655C210.261 153.407 210.261 151.363 211.511 150.114C212.133 149.488 212.961 149.177 213.783 149.177C214.606 149.177 215.429 149.488 216.056 150.114L241.04 175.073L266.03 150.114C266.652 149.488 267.475 149.177 268.302 149.177ZM268.302 145.226C266.383 145.226 264.585 145.969 263.235 147.323L241.045 169.489L218.856 147.323C217.506 145.974 215.703 145.231 213.789 145.231C211.874 145.231 210.071 145.974 208.721 147.323C205.926 150.114 205.926 154.655 208.721 157.447L230.91 179.614L208.721 201.78C205.926 204.572 205.926 209.113 208.721 211.905C210.071 213.253 211.874 213.996 213.789 213.996C215.703 213.996 217.506 213.253 218.856 211.905L241.045 189.738L263.235 211.905C264.585 213.253 266.383 213.996 268.302 213.996C270.222 213.996 272.02 213.253 273.37 211.905C276.165 209.113 276.165 204.572 273.37 201.78L251.18 179.614L273.37 157.447C276.165 154.655 276.165 150.114 273.37 147.323C272.015 145.969 270.217 145.226 268.302 145.226Z" fill="#263238"/>
<path d="M174.309 294.06C183.326 294.06 191.151 294.06 191.262 294.06C201.366 294.06 209.555 286.053 209.555 276.171C209.555 267.553 203.322 260.362 195.022 258.666C195.117 257.913 195.185 257.149 195.185 256.369C195.185 246.139 186.701 237.843 176.239 237.843C170.059 237.843 164.591 240.745 161.131 245.223C160.246 233.834 149.842 225.048 137.666 226.501C128.765 227.565 121.403 234.292 119.764 242.916C119.236 245.681 119.294 248.362 119.816 250.88C117.428 248.368 114.032 246.787 110.251 246.787C103.327 246.787 97.6743 252.06 97.2261 258.719C94.0833 258.039 90.661 258.081 87.0595 259.403C80.1727 261.932 75.2687 268.269 74.984 275.454C74.5779 285.658 82.9148 294.06 93.266 294.06C94.0517 294.06 96.8148 294.06 97.4528 294.06H135.441H174.309ZM143.292 294.06H145.017H143.292Z" fill="white"/>
<path d="M191.257 296.694H174.304C172.848 296.694 171.667 295.514 171.667 294.06C171.667 292.606 172.848 291.426 174.304 291.426H191.257C199.894 291.426 206.918 284.583 206.918 276.171C206.918 268.996 201.692 262.717 194.489 261.247C193.134 260.968 192.227 259.693 192.401 258.324C192.485 257.686 192.538 257.033 192.538 256.369C192.538 247.604 185.219 240.471 176.228 240.471C171.076 240.471 166.331 242.789 163.204 246.83C162.539 247.693 161.406 248.041 160.367 247.746C159.323 247.43 158.574 246.513 158.495 245.428C158.12 240.619 155.821 236.252 152.019 233.139C148.101 229.931 143.118 228.524 137.972 229.114C130.188 230.047 123.766 235.92 122.342 243.406C121.899 245.729 121.915 248.073 122.384 250.343C122.627 251.502 122.068 252.666 121.024 253.214C119.985 253.757 118.698 253.546 117.886 252.687C115.888 250.58 113.167 249.416 110.235 249.416C104.767 249.416 100.2 253.577 99.8415 258.887C99.7888 259.656 99.4091 260.357 98.7974 260.815C98.1858 261.274 97.4053 261.453 96.6565 261.284C93.6508 260.652 90.8086 260.831 87.9558 261.874C82.0077 264.055 77.8472 269.554 77.6099 275.56C77.4465 279.674 78.944 283.593 81.8232 286.595C84.8183 289.709 88.8786 291.421 93.2554 291.421H135.425C136.88 291.421 138.061 292.601 138.061 294.055C138.061 295.508 136.88 296.688 135.425 296.688H93.2554C87.5129 296.688 81.9603 294.344 78.0212 290.246C74.1349 286.2 72.1153 280.917 72.3368 275.349C72.6637 267.242 78.2111 259.841 86.1419 256.928C89.0368 255.869 92.032 255.469 95.043 255.721C96.7936 249.042 102.99 244.148 110.24 244.148C112.518 244.148 114.743 244.643 116.784 245.565C116.842 244.517 116.963 243.469 117.164 242.42C119.009 232.707 127.309 225.084 137.344 223.883C143.946 223.077 150.327 224.937 155.363 229.062C158.885 231.948 161.411 235.673 162.74 239.85C166.526 236.853 171.229 235.198 176.228 235.198C188.13 235.198 197.811 244.696 197.811 256.364C197.811 256.469 197.811 256.57 197.806 256.675C206.264 259.414 212.191 267.273 212.191 276.165C212.191 287.491 202.8 296.694 191.257 296.694ZM145.017 296.694H143.292C141.837 296.694 140.656 295.514 140.656 294.06C140.656 292.606 141.837 291.426 143.292 291.426H145.017C146.472 291.426 147.653 292.606 147.653 294.06C147.653 295.514 146.472 296.694 145.017 296.694Z" fill="#263238"/>
<path d="M183.084 268.817C182.989 268.817 182.894 268.807 182.794 268.785C182.082 268.627 181.634 267.922 181.797 267.21C181.977 266.41 182.256 265.63 182.615 264.893C185.547 258.977 193.62 256.786 200.596 260.02C201.261 260.326 201.551 261.105 201.239 261.764C200.934 262.427 200.143 262.707 199.494 262.406C193.778 259.783 187.276 261.416 184.977 266.057C184.708 266.605 184.502 267.189 184.371 267.785C184.228 268.401 183.685 268.817 183.084 268.817Z" fill="#263238"/>
<path d="M158.378 296.693H153.079C151.624 296.693 150.442 295.514 150.442 294.06C150.442 292.606 151.624 291.426 153.079 291.426H158.378C159.834 291.426 161.015 292.606 161.015 294.06C161.015 295.514 159.834 296.693 158.378 296.693Z" fill="#263238"/>
<path d="M55.5263 189.896H2.63657C1.18119 189.896 0 188.716 0 187.262C0 185.808 1.18119 184.628 2.63657 184.628H55.5263C56.9816 184.628 58.1628 185.808 58.1628 187.262C58.1628 188.716 56.9869 189.896 55.5263 189.896Z" fill="#ECEFF1"/>
<path d="M70.7235 189.896H63.0985C61.6431 189.896 60.4619 188.716 60.4619 187.262C60.4619 185.808 61.6431 184.628 63.0985 184.628H70.7235C72.1788 184.628 73.36 185.808 73.36 187.262C73.36 188.716 72.1788 189.896 70.7235 189.896Z" fill="#ECEFF1"/>
<path d="M92.1011 189.896H78.6756C77.2202 189.896 76.0391 188.716 76.0391 187.262C76.0391 185.808 77.2202 184.628 78.6756 184.628H92.1011C93.5565 184.628 94.7376 185.808 94.7376 187.262C94.7376 188.716 93.5565 189.896 92.1011 189.896Z" fill="#ECEFF1"/>
<path d="M92.101 199.72H41.3944C39.939 199.72 38.7578 198.54 38.7578 197.086C38.7578 195.633 39.939 194.453 41.3944 194.453H92.101C93.5564 194.453 94.7376 195.633 94.7376 197.086C94.7376 198.54 93.5564 199.72 92.101 199.72Z" fill="#ECEFF1"/>
<path d="M32.2614 199.72H29.203C27.7476 199.72 26.5664 198.54 26.5664 197.086C26.5664 195.633 27.7476 194.453 29.203 194.453H32.2614C33.7168 194.453 34.898 195.633 34.898 197.086C34.898 198.54 33.7168 199.72 32.2614 199.72Z" fill="#ECEFF1"/>
<path d="M19.7274 199.72H12.0497C10.5943 199.72 9.41309 198.54 9.41309 197.086C9.41309 195.633 10.5943 194.453 12.0497 194.453H19.7274C21.1828 194.453 22.3639 195.633 22.3639 197.086C22.3639 198.54 21.1828 199.72 19.7274 199.72Z" fill="#ECEFF1"/>
<path d="M67.9025 180.072H41.3944C39.939 180.072 38.7578 178.892 38.7578 177.438C38.7578 175.984 39.939 174.804 41.3944 174.804H67.9025C69.3579 174.804 70.5391 175.984 70.5391 177.438C70.5391 178.892 69.3579 180.072 67.9025 180.072Z" fill="#ECEFF1"/>
<path d="M67.9026 170.248H61.2743C59.8189 170.248 58.6377 169.068 58.6377 167.614C58.6377 166.16 59.8189 164.98 61.2743 164.98H67.9026C69.358 164.98 70.5392 166.16 70.5392 167.614C70.5392 169.068 69.358 170.248 67.9026 170.248Z" fill="#ECEFF1"/>
<path d="M50.664 209.545H41.3885C39.9331 209.545 38.752 208.365 38.752 206.911C38.752 205.457 39.9331 204.277 41.3885 204.277H50.664C52.1194 204.277 53.3006 205.457 53.3006 206.911C53.3006 208.365 52.1247 209.545 50.664 209.545Z" fill="#ECEFF1"/>
<defs>
<linearGradient id="paint0_linear" x1="234.15" y1="370.632" x2="463.784" y2="361.886" gradientUnits="userSpaceOnUse">
<stop stop-color="#01579B"/>
<stop offset="1" stop-color="#0091EA"/>
</linearGradient>
</defs>
</svg>
