<svg width="120" height="29" viewBox="0 0 120 29" fill="none" xmlns="http://www.w3.org/2000/svg">
<rect width="120" height="28.7703" fill="black" fill-opacity="0"/>
<rect width="120" height="28.7703" fill="black" fill-opacity="0"/>
<rect width="47.6296" height="11.4193" fill="black" fill-opacity="0" transform="translate(0 28.7703) scale(2.51944 -2.51944)"/>
<path d="M87.5619 8.45612C86.9846 10.3259 84.3032 11.6073 79.5216 12.2931L68.104 13.9133L68.3901 12.9789C69.3356 9.90489 70.6809 7.8058 72.4168 6.69387C74.1517 5.58396 76.9792 5.02393 80.8984 5.02393C86.0492 5.02393 88.268 6.17036 87.5619 8.45612ZM24.1998 23.24C22.3452 23.5291 19.6891 23.6763 16.2174 23.6763C10.189 23.6763 7.55521 22.4578 8.31814 20.0259C8.86498 18.2819 10.4446 17.2339 13.0672 16.8788L26.7787 15.0395L24.1998 23.24V23.24ZM119.784 1.28637C119.374 0.682714 118.879 0.270812 116.835 0.115587C116.3 0.0739909 114.525 0.0171765 111.548 0.0171765C103.713 0.0171765 98.3931 2.39526 95.6701 7.08446C96.4188 2.36482 91.8199 -7.0848e-05 81.8541 -7.0848e-05C70.1594 -7.0848e-05 62.8598 4.71551 59.9471 14.1304C58.8666 17.6316 58.758 20.5018 59.6092 22.7469L56.8477 22.9306C54.6908 23.0929 51.8531 23.24 50.1142 23.24C45.8358 23.24 43.1767 22.5207 42.149 21.0851C41.2319 19.7997 41.3211 17.4074 42.3965 13.9133C44.1801 8.1335 48.6035 5.53019 55.6708 5.53019C59.3323 5.52106 62.9014 5.91369 62.9014 5.91369C63.3914 5.88223 63.6106 5.36989 63.5558 4.94581L63.4858 4.39492L63.2342 2.45106C63.0709 1.17578 62.1212 0.41589 60.3793 0.180517C58.7925 0.0739901 57.6136 -7.0848e-05 55.8757 -7.0848e-05C55.8423 -7.0848e-05 55.8098 0.00297304 55.7783 0.00297304C46.543 0.0232638 40.1047 3.0608 36.4686 9.10137C37.8017 3.03645 33.5315 -7.0848e-05 23.6397 -7.0848e-05C18.1399 -7.0848e-05 14.1984 0.159213 11.8092 0.470677C9.97489 0.698948 8.85686 1.45884 8.45308 2.7473L7.66782 5.24307C7.52579 5.70063 7.74594 5.9289 8.33336 5.9289L8.35061 5.92586C8.78585 5.87006 10.4588 5.70469 13.3188 5.47642C17.101 5.17611 19.9042 5.02393 21.7446 5.02393C27.1896 5.02393 29.4865 6.38443 28.6343 9.10847C28.4476 9.71314 28.0317 10.0885 27.3976 10.2336C22.2458 11.0848 18.1602 11.6986 15.1379 12.073C6.62792 13.1565 1.71551 15.8065 0.387477 20.0259C-1.42551 25.8271 3.1237 28.7287 14.033 28.7287C19.4761 28.7287 24.0455 28.4111 27.7375 27.7902C29.8639 27.4321 30.9424 26.8903 31.3715 25.5187L33.3986 19.053C33.1886 25.5116 37.7205 28.7703 47.0076 28.7703C51.0272 28.7703 54.8389 28.6353 56.6397 28.3229C58.544 27.9941 59.453 27.5792 59.873 26.1426L60.2849 24.1044C62.2643 27.1876 66.6055 28.7287 73.3025 28.7287C80.3708 28.7287 84.4979 28.5308 85.6708 28.1372C86.6538 27.8257 87.2636 27.3205 87.4777 26.6093C87.5223 26.4845 87.5406 26.3506 87.5619 26.2025L88.4131 23.4581C88.5551 22.9813 88.339 22.753 87.7556 22.7733L83.2338 22.9904C80.2166 23.1528 77.8497 23.24 76.1442 23.24C72.9342 23.24 70.7306 23.0219 69.5254 22.5836C67.7377 21.8957 66.8906 20.5302 66.9687 18.4646L81.2971 16.6303C87.7161 15.8085 92.0147 13.8312 94.1888 10.6952L89.3363 27.6076C89.244 27.9252 89.2815 28.1849 89.4428 28.3726C89.6244 28.5805 89.9349 28.6871 90.3914 28.6871H96.3234C97.3583 28.6871 97.7286 28.1504 97.8564 27.7009L103.096 9.4524C103.786 7.05301 105.996 5.88223 109.85 5.88223C113.327 5.88223 115.953 5.91368 117.628 5.9776C117.673 5.97862 117.715 5.97861 117.761 5.97861C118.084 5.97861 118.678 5.86194 118.97 5.06452L119.891 2.56063C120.067 2.07365 120.029 1.64653 119.784 1.28637" fill="#83B81A"/>
</svg>
