<svg width="40" height="47" viewBox="0 0 40 47" fill="none" xmlns="http://www.w3.org/2000/svg">
<rect width="39.9996" height="46.9233" fill="black" fill-opacity="0"/>
<path d="M26.0204 4.06452L28.3661 0.6585C28.5054 0.456038 28.4707 0.190277 28.2886 0.064611C28.1067 -0.060357 27.8458 0.00142861 27.7076 0.204123L25.2698 3.74244C23.6633 3.10957 21.8793 2.75689 19.9989 2.75689C18.1186 2.75689 16.3341 3.10922 14.7277 3.74244L12.2902 0.204007C12.1505 0.00154502 11.8901 -0.0604733 11.7081 0.0644947C11.5261 0.189812 11.4916 0.455689 11.6308 0.658384L13.9773 4.0644C10.2465 5.79999 7.63024 9.09803 7.29687 12.9471H32.6996C32.3674 9.09803 29.751 5.80011 26.0204 4.06452Z" fill="#9FBF3B"/>
<path d="M14.6947 9.43315C13.9182 9.43315 13.2891 8.80401 13.2891 8.02767C13.2891 7.25145 13.9179 6.62207 14.6947 6.62207C15.4705 6.62207 16.0994 7.25122 16.0994 8.02767C16.0996 8.80389 15.4705 9.43315 14.6947 9.43315Z" fill="white"/>
<path d="M25.3072 9.43315C24.5314 9.43315 23.9023 8.80401 23.9023 8.02767C23.9023 7.25122 24.5314 6.62207 25.3072 6.62207C26.0839 6.62207 26.7127 7.25145 26.7127 8.02767C26.7127 8.80389 26.0837 9.43315 25.3072 9.43315Z" fill="white"/>
<path d="M5.66766 29C5.66766 30.565 4.3989 31.8338 2.83377 31.8338C1.26876 31.8338 4.19012e-07 30.565 4.19012e-07 29V17.5379C4.19012e-07 15.9729 1.26876 14.7041 2.83377 14.7041C4.3989 14.7041 5.66766 15.9729 5.66766 17.5379V29Z" fill="#9FBF3B"/>
<path d="M7.29687 14.7915V35.4933C7.29687 36.7227 8.29359 37.7195 9.52338 37.7195H12.1569V44.0894C12.1569 45.6545 13.4255 46.9232 14.9907 46.9232C16.5558 46.9232 17.8246 45.6545 17.8246 44.0894V37.7195H22.173V44.0894C22.173 45.6545 23.4415 46.9232 25.0067 46.9232C26.572 46.9232 27.8405 45.6545 27.8405 44.0894V37.7195H30.474C31.7038 37.7195 32.7008 36.7233 32.7008 35.4933V14.7915H7.29687Z" fill="#9FBF3B"/>
<path d="M34.332 29C34.332 30.565 35.6007 31.8338 37.1658 31.8338C38.7308 31.8338 39.9996 30.565 39.9996 29V17.5379C39.9996 15.9729 38.7308 14.7041 37.1658 14.7041C35.6007 14.7041 34.332 15.9729 34.332 17.5379V29Z" fill="#9FBF3B"/>
</svg>
