<svg width="40" height="50" viewBox="0 0 40 50" fill="none" xmlns="http://www.w3.org/2000/svg">
<rect width="40" height="49.1233" fill="black" fill-opacity="0"/>
<rect width="40" height="49.1233" fill="black" fill-opacity="0"/>
<rect width="40" height="49.1233" fill="black" fill-opacity="0"/>
<rect width="0.729257" height="0.679738" fill="black" fill-opacity="0" transform="translate(0 49.1233) scale(54.8503 -54.8503)"/>
<path d="M33.4055 26.0981C33.3498 19.8814 38.483 16.8968 38.7152 16.7513C35.8266 12.5253 31.3312 11.9463 29.7275 11.8782C25.9039 11.4912 22.263 14.129 20.3249 14.129C18.3869 14.129 15.3899 11.934 12.2196 11.9959C8.04623 12.0578 4.20409 14.42 2.05547 18.1538C-2.27583 25.6678 0.950203 36.8041 5.16695 42.9032C7.23198 45.8847 9.69019 49.2438 12.9224 49.12C16.037 48.9961 17.2135 47.1076 20.972 47.1076C24.7306 47.1076 25.7894 49.12 29.0804 49.0611C32.4272 48.9961 34.5511 46.0147 36.6006 43.0239C38.9659 39.5626 39.9443 36.2128 40 36.0363C39.9257 36.0053 33.4736 33.5316 33.4055 26.0981Z" fill="#B3B3B3"/>
<path d="M27.2225 7.84514C28.9377 5.76774 30.0956 2.87915 29.7766 2.82222e-06C27.3059 0.0991813 24.3153 1.64709 22.5413 3.7245C20.9531 5.56049 19.5599 8.50159 19.9374 11.3221C22.693 11.5357 25.5071 9.91949 27.2225 7.84514Z" fill="#B3B3B3"/>
</svg>
