<svg width="120" height="24" viewBox="0 0 120 24" fill="none" xmlns="http://www.w3.org/2000/svg">
<path d="M114.906 3.0162C114.906 1.65332 116.001 0.536213 117.341 0.536213C117.989 0.536213 118.592 0.80432 119.062 1.25116C119.531 1.72035 119.777 2.34593 119.777 2.99386C119.777 3.64178 119.531 4.26736 119.062 4.73655C118.592 5.20574 117.989 5.47384 117.341 5.47384C116.001 5.47384 114.906 4.37907 114.906 3.0162ZM114.705 3.0162C114.705 4.49078 115.889 5.69726 117.364 5.69726C118.079 5.69726 118.726 5.42916 119.218 4.91529C119.71 4.40142 120 3.73115 120 3.0162C120 2.30125 119.732 1.63098 119.218 1.11711C118.704 0.60324 118.056 0.335133 117.364 0.335133C115.889 0.335133 114.705 1.54161 114.705 3.0162ZM116.358 4.6025H116.738V3.35133H117.587C117.721 3.35133 117.833 3.35133 117.922 3.39602C118.034 3.46304 118.101 3.5971 118.123 3.77583L118.168 4.26736C118.168 4.37907 118.168 4.4461 118.168 4.49078C118.19 4.53547 118.19 4.55781 118.213 4.58015H118.682V4.51313C118.615 4.49078 118.592 4.42376 118.57 4.33439C118.548 4.2897 118.548 4.20034 118.548 4.08862L118.525 3.70881C118.525 3.53007 118.481 3.41836 118.436 3.35133C118.369 3.2843 118.28 3.21728 118.168 3.17259C118.302 3.10557 118.391 3.0162 118.458 2.90449C118.525 2.79278 118.548 2.65872 118.548 2.47999C118.548 2.14485 118.414 1.92143 118.168 1.78738C118.034 1.72035 117.855 1.69801 117.654 1.69801H116.381L116.358 4.6025ZM116.716 3.0162V2.0108H117.609C117.743 2.0108 117.855 2.03314 117.922 2.07783C118.056 2.14485 118.123 2.30125 118.123 2.50233C118.123 2.70341 118.079 2.83746 117.967 2.90449C117.877 2.97151 117.743 3.0162 117.565 3.0162H116.716V3.0162ZM10.8583 6.70266L0 23.7721H7.41761L17.8738 7.4623L10.8583 6.70266ZM55.5651 6.32285V0H34.4517C31.5695 0.178738 30.3184 1.56395 29.38 2.54701C28.3746 3.5971 27.8161 5.80897 27.8161 5.80897V0.0446844H16.5779C15.7289 0.0446844 14.9246 0.40216 14.3214 1.25116C13.6958 2.07783 11.1264 6.32285 11.1264 6.32285H55.5651ZM112.985 6.32285V0H90.3966C87.5368 0.178738 86.2633 1.56395 85.3249 2.54701C84.3195 3.5971 83.7609 5.80897 83.7609 5.80897V6.32285H112.985ZM62.9827 0.0223422H56.6598V6.32285H62.9827V0.0223422ZM83.6939 0.0223422H77.3934V6.32285H83.6939V0.0223422ZM83.6939 8.60175L77.4828 8.22193V15.5278C77.4828 15.5278 77.4604 17.628 75.4273 17.628H64.7924C64.7924 17.628 62.9827 17.4716 62.9827 15.5502V7.23888L56.7269 6.79203V17.9855C57.7323 23.3476 62.5805 23.7721 62.5805 23.7721C62.5805 23.7721 63.0721 23.7945 63.1614 23.8168H77.5722C77.5722 23.8168 83.7386 23.3253 83.7386 17.3822L83.6939 8.60175ZM21.3815 23.7721H50.9179C56.0566 22.7444 56.5928 18.0525 56.5928 18.0525C56.8386 16.6673 56.7045 15.5278 56.7045 15.5278C56.5481 14.5895 54.7608 10.4338 50.9179 10.0763C48.6166 9.85291 28.1288 8.22193 28.1288 8.22193C28.531 10.2774 29.447 11.3275 30.0726 11.9084C31.5025 13.2713 33.7591 13.6734 33.7591 13.6734C34.2953 13.7181 49.555 14.9916 49.555 14.9916C50.0465 15.014 50.9626 15.148 50.9402 16.3545C50.9402 16.5109 50.8062 17.561 49.6444 17.561H27.5479V8.17725L21.4038 7.7304C21.3815 7.7304 21.3815 23.7721 21.3815 23.7721ZM83.7386 23.8168H106.349C112.024 23.4817 112.828 18.0972 112.828 18.0972C113.029 16.6896 112.873 15.5278 112.873 15.5278C112.716 14.2543 110.907 10.4115 107.042 10.0317C104.763 9.80823 84.1408 8.60175 84.1408 8.60175C84.744 10.7243 85.5707 11.3722 86.1962 11.9531C87.6261 13.3383 89.7487 13.6511 89.7487 13.6511C90.2849 13.6958 105.701 14.9916 105.701 14.9916C106.193 15.014 107.198 15.0587 107.198 16.2651C107.198 16.6226 107.019 17.0024 106.796 17.2035C106.796 17.2035 106.26 17.494 105.746 17.494H83.8056L83.7386 23.8168Z" fill="#00539B"/>
</svg>
