<svg width="27" height="7" viewBox="0 0 27 7" fill="none" xmlns="http://www.w3.org/2000/svg">
<g clip-path="url(#clip0)">
<rect width="1920" height="9030" fill="#ECEFF1" transform="translate(-1367 -36)"/>
<rect width="1920" height="835.009" fill="black" fill-opacity="0" transform="translate(-1367 -36)"/>
<rect width="1920" height="835.009" fill="black" fill-opacity="0" transform="translate(-1367 -36)"/>
<rect x="-1367" y="-36" width="1920" height="705" fill="#263238"/>
<rect width="1920" height="120" fill="black" fill-opacity="0" transform="translate(-1367 -36)"/>
<rect x="-1367" y="-36" width="1920" height="50" fill="white"/>
<rect width="240" height="322" fill="black" fill-opacity="0" transform="translate(-61 -2)"/>
<g filter="url(#filter0_d)">
<path d="M179 310V16.8243C179 11.3015 174.523 6.8243 169 6.8243H28.532C26.2581 6.8243 24.0521 6.04934 22.2779 4.62722L20.2637 3.01282C16.6088 0.0833659 11.4102 0.0833626 7.75535 3.01281L5.74117 4.62721C3.96687 6.04934 1.76088 6.8243 -0.513 6.8243H-51C-56.5228 6.8243 -61 11.3014 -61 16.8243V310C-61 315.523 -56.5228 320 -51 320H169C174.523 320 179 315.523 179 310Z" fill="#E1F5FE"/>
</g>
</g>
<defs>
<filter id="filter0_d" x="-86" y="-14.1841" width="290" height="369.184" filterUnits="userSpaceOnUse" color-interpolation-filters="sRGB">
<feFlood flood-opacity="0" result="BackgroundImageFix"/>
<feColorMatrix in="SourceAlpha" type="matrix" values="0 0 0 0 0 0 0 0 0 0 0 0 0 0 0 0 0 0 255 0"/>
<feOffset dy="10"/>
<feGaussianBlur stdDeviation="12.5"/>
<feColorMatrix type="matrix" values="0 0 0 0 0.14902 0 0 0 0 0.196078 0 0 0 0 0.219608 0 0 0 0.16 0"/>
<feBlend mode="normal" in2="BackgroundImageFix" result="effect1_dropShadow"/>
<feBlend mode="normal" in="SourceGraphic" in2="effect1_dropShadow" result="shape"/>
</filter>
<clipPath id="clip0">
<rect width="1920" height="9030" fill="white" transform="translate(-1367 -36)"/>
</clipPath>
</defs>
</svg>
