<svg width="50" height="54" viewBox="0 0 50 54" fill="none" xmlns="http://www.w3.org/2000/svg">
<path d="M0 0V54H22.8462V45.6923H27V54H49.8462V0H0ZM4.15385 4.15385H45.6923V49.8462H31.1538V41.5385H18.6923V49.8462H4.15385V4.15385ZM8.30769 8.30769V12.4615H16.6154V8.30769H8.30769ZM20.7692 8.30769V12.4615H29.0769V8.30769H20.7692ZM33.2308 8.30769V12.4615H41.5385V8.30769H33.2308ZM8.30769 16.6154V20.7692H16.6154V16.6154H8.30769ZM20.7692 16.6154V20.7692H29.0769V16.6154H20.7692ZM33.2308 16.6154V20.7692H41.5385V16.6154H33.2308ZM8.30769 24.9231V29.0769H16.6154V24.9231H8.30769ZM20.7692 24.9231V29.0769H29.0769V24.9231H20.7692ZM33.2308 24.9231V29.0769H41.5385V24.9231H33.2308ZM8.30769 33.2308V37.3846H16.6154V33.2308H8.30769ZM20.7692 33.2308V37.3846H29.0769V33.2308H20.7692ZM33.2308 33.2308V37.3846H41.5385V33.2308H33.2308ZM8.30769 41.5385V45.6923H16.6154V41.5385H8.30769ZM33.2308 41.5385V45.6923H41.5385V41.5385H33.2308Z" fill="white"/>
</svg>
