<svg width="54" height="54" viewBox="0 0 54 54" fill="none" xmlns="http://www.w3.org/2000/svg">
<path d="M26.9649 0L26.4031 0.140442L1.68531 6.88166L0 7.37321V54H24.7178V45.0117H29.212V54H53.9298V7.37321L52.2445 6.88166L27.5267 0.140442L26.9649 0ZM26.9649 4.63459L49.4356 10.7438V49.5059H33.7061V40.5176H20.2237V49.5059H4.49415V10.7438L26.9649 4.63459ZM11.2354 13.5527V18.0468H15.7295V13.5527H11.2354ZM20.2237 13.5527V18.0468H24.7178V13.5527H20.2237ZM29.212 13.5527V18.0468H33.7061V13.5527H29.212ZM38.2003 13.5527V18.0468H42.6944V13.5527H38.2003ZM11.2354 22.541V27.0351H15.7295V22.541H11.2354ZM20.2237 22.541V27.0351H24.7178V22.541H20.2237ZM29.212 22.541V27.0351H33.7061V22.541H29.212ZM38.2003 22.541V27.0351H42.6944V22.541H38.2003ZM11.2354 31.5293V36.0234H15.7295V31.5293H11.2354ZM20.2237 31.5293V36.0234H24.7178V31.5293H20.2237ZM29.212 31.5293V36.0234H33.7061V31.5293H29.212ZM38.2003 31.5293V36.0234H42.6944V31.5293H38.2003ZM11.2354 40.5176V45.0117H15.7295V40.5176H11.2354ZM38.2003 40.5176V45.0117H42.6944V40.5176H38.2003Z" fill="white"/>
</svg>
