<svg width="64" height="52" viewBox="0 0 64 52" fill="none" xmlns="http://www.w3.org/2000/svg">
<path d="M14 0V10.1875L10.8125 7.0625L7.9375 9.875L14.5625 16.5L16 17.875L17.4375 16.5L24.0625 9.875L21.1875 7.0625L18 10.1875V0H14ZM16 20C10.5 20 6 24.5 6 30C6 32.9531 7.32031 35.6016 9.375 37.4375C3.85938 39.9688 0 45.5547 0 52H4C4 45.3516 9.35156 40 16 40C22.6484 40 28 45.3516 28 52H32C32 49.2422 31.2969 46.6406 30.0625 44.375H30.1875C30.9297 40.7266 34.1094 38 38 38C42.4375 38 46 41.5625 46 46H50C50 43.8203 49.4063 41.7656 48.375 40C49.2031 37.6797 51.375 36 54 36C57.336 36 60 38.6641 60 42H64C64 38.3281 61.9688 35.1172 59 33.375C59.6485 32.4141 60 31.2344 60 30C60 26.7109 57.2891 24 54 24C50.711 24 48 26.7109 48 30C48 31.2344 48.3516 32.4141 49 33.375C47.5859 34.1953 46.4297 35.375 45.5625 36.75C45 36.2891 44.3906 35.8594 43.75 35.5C43.8594 35.3828 43.9609 35.25 44.0625 35.125C44.25 34.9062 44.4609 34.6797 44.625 34.4375C44.9375 33.9766 45.1641 33.5156 45.375 33C45.5625 32.5547 45.7109 32.1094 45.8125 31.625C45.9219 31.1094 46 30.5469 46 30C46 25.6016 42.3984 22 38 22C34.1563 22 30.9375 24.7422 30.1875 28.375C30.0781 28.8906 30 29.4531 30 30C30 30.5391 30.0781 31.0625 30.1875 31.5625C30.1953 31.5859 30.1797 31.6016 30.1875 31.625C30.2969 32.1094 30.4297 32.5547 30.625 33C31.0156 33.9609 31.6016 34.7656 32.3125 35.5C30.1641 36.6797 28.4219 38.5 27.3125 40.6875C25.9688 39.3438 24.3672 38.2344 22.625 37.4375C24.6797 35.6016 26 32.9531 26 30C26 24.5 21.5 20 16 20ZM16 24C19.3359 24 22 26.6641 22 30C22 33.3359 19.3359 36 16 36C12.6641 36 10 33.3359 10 30C10 26.6641 12.6641 24 16 24ZM38 26C40.2344 26 42 27.7656 42 30C42 32.2344 40.2344 34 38 34C36.3281 34 34.9141 33 34.3125 31.5625C34.2109 31.3203 34.1172 31.0781 34.0625 30.8125C34.0078 30.5469 34 30.2812 34 30C34 29.7188 34.0078 29.4531 34.0625 29.1875C34.4297 27.3516 36.0469 26 38 26ZM54 28C55.125 28 56 28.875 56 30C56 31.125 55.125 32 54 32C52.875 32 52 31.125 52 30C52 28.875 52.875 28 54 28Z" fill="white"/>
</svg>
