<svg width="54" height="54" viewBox="0 0 54 54" fill="none" xmlns="http://www.w3.org/2000/svg">
<rect width="54" height="54" fill="black" fill-opacity="0"/>
<rect width="48.5946" height="36.446" fill="black" fill-opacity="0" transform="translate(3 9)"/>
<rect width="48.5946" height="36.446" fill="black" fill-opacity="0" transform="translate(3 9)"/>
<path d="M15.1487 9V15.0743H3V45.446H51.5946V15.0743H39.446V9H15.1487ZM19.1982 13.0496H35.3964V19.1239H47.5451V41.3964H7.04955V19.1239H19.1982V13.0496ZM27.2973 19.1239C21.7292 19.1239 17.1734 23.6796 17.1734 29.2478C17.1734 34.8159 21.7292 39.3717 27.2973 39.3717C32.8655 39.3717 37.4212 34.8159 37.4212 29.2478C37.4212 23.6796 32.8655 19.1239 27.2973 19.1239ZM43.4955 21.1487C42.3803 21.1487 41.4708 22.0582 41.4708 23.1734C41.4708 24.2886 42.3803 25.1982 43.4955 25.1982C44.6107 25.1982 45.5203 24.2886 45.5203 23.1734C45.5203 22.0582 44.6107 21.1487 43.4955 21.1487ZM27.2973 23.1734C30.6746 23.1734 33.3717 25.8705 33.3717 29.2478C33.3717 32.625 30.6746 35.3221 27.2973 35.3221C23.9201 35.3221 21.223 32.625 21.223 29.2478C21.223 25.8705 23.9201 23.1734 27.2973 23.1734Z" fill="#0091EA"/>
</svg>
