<svg width="120" height="40" viewBox="0 0 120 40" fill="none" xmlns="http://www.w3.org/2000/svg">
<rect width="120" height="39.5014" fill="black" fill-opacity="0"/>
<path d="M51.351 20.7877C51.351 26.4708 46.9051 30.6586 41.4489 30.6586C35.9928 30.6586 31.5469 26.4708 31.5469 20.7877C31.5469 15.0645 35.9928 10.9167 41.4489 10.9167C46.9051 10.9167 51.351 15.0645 51.351 20.7877ZM47.0164 20.7877C47.0164 17.2363 44.4396 14.8064 41.4489 14.8064C38.4583 14.8064 35.8815 17.2363 35.8815 20.7877C35.8815 24.3035 38.4583 26.769 41.4489 26.769C44.4396 26.769 47.0164 24.299 47.0164 20.7877Z" fill="#EA4335"/>
<path d="M72.7143 20.7877C72.7143 26.4708 68.2684 30.6586 62.8122 30.6586C57.3561 30.6586 52.9102 26.4708 52.9102 20.7877C52.9102 15.0689 57.3561 10.9167 62.8122 10.9167C68.2684 10.9167 72.7143 15.0645 72.7143 20.7877ZM68.3796 20.7877C68.3796 17.2363 65.8029 14.8064 62.8122 14.8064C59.8216 14.8064 57.2448 17.2363 57.2448 20.7877C57.2448 24.3035 59.8216 26.769 62.8122 26.769C65.8029 26.769 68.3796 24.299 68.3796 20.7877Z" fill="#FBBC05"/>
<path d="M93.1847 11.5131V29.2345C93.1847 36.5242 88.8856 39.5015 83.8033 39.5015C79.0192 39.5015 76.1398 36.3017 75.0539 33.6848L78.8278 32.1139C79.4998 33.7204 81.1464 35.6163 83.7989 35.6163C87.0521 35.6163 89.0681 33.6092 89.0681 29.8308V28.4112H88.9168C87.9466 29.6083 86.0775 30.6541 83.7188 30.6541C78.7833 30.6541 74.2617 26.3551 74.2617 20.8233C74.2617 15.2514 78.7833 10.9167 83.7188 10.9167C86.073 10.9167 87.9422 11.9626 88.9168 13.1241H89.0681V11.5175H93.1847V11.5131ZM89.3752 20.8233C89.3752 17.3475 87.0565 14.8064 84.1059 14.8064C81.1153 14.8064 78.6097 17.3475 78.6097 20.8233C78.6097 24.2634 81.1153 26.769 84.1059 26.769C87.0565 26.769 89.3752 24.2634 89.3752 20.8233Z" fill="#4285F4"/>
<path d="M99.9739 1.12573V30.0531H95.7461V1.12573H99.9739Z" fill="#34A853"/>
<path d="M116.448 24.0365L119.813 26.2795C118.727 27.8861 116.11 30.6542 111.588 30.6542C105.981 30.6542 101.793 26.3195 101.793 20.7833C101.793 14.9132 106.016 10.9124 111.103 10.9124C116.226 10.9124 118.731 14.9889 119.55 17.1918L119.999 18.3133L106.804 23.7784C107.814 25.7588 109.385 26.769 111.588 26.769C113.796 26.769 115.327 25.6831 116.448 24.0365ZM106.092 20.4851L114.913 16.8224C114.428 15.5897 112.968 14.7308 111.25 14.7308C109.047 14.7308 105.981 16.6756 106.092 20.4851V20.4851Z" fill="#EA4335"/>
<path d="M15.5451 18.2198V14.032H29.6573C29.7952 14.7619 29.8664 15.6253 29.8664 16.5598C29.8664 19.7018 29.0075 23.587 26.2394 26.3551C23.5469 29.1588 20.1068 30.6542 15.5496 30.6542C7.10279 30.6542 6.36631e-09 23.7739 6.36631e-09 15.3271C6.36631e-09 6.88027 7.10279 -5.30525e-10 15.5496 -5.30525e-10C20.2225 -5.30525e-10 23.5514 1.83355 26.0525 4.2234L23.0974 7.17845C21.3039 5.49621 18.874 4.1878 15.5451 4.1878C9.37693 4.1878 4.55273 9.15886 4.55273 15.3271C4.55273 21.4953 9.37693 26.4664 15.5451 26.4664C19.546 26.4664 21.8246 24.8598 23.2843 23.4C24.4681 22.2162 25.2469 20.5251 25.554 18.2154L15.5451 18.2198V18.2198Z" fill="#4285F4"/>
</svg>
