<svg width="40" height="40" viewBox="0 0 40 40" fill="none" xmlns="http://www.w3.org/2000/svg">
<rect width="40" height="40.0001" fill="black" fill-opacity="0"/>
<path d="M20 40.0001C19.8012 40.0001 19.6032 39.9965 19.4056 39.9907L23.493 28.7576H29.118C30.1053 28.7576 31.1891 27.9986 31.5268 27.0713L35.9612 14.8911C36.6867 12.8969 35.5444 11.2655 33.4225 11.2655H25.6189L19.0712 29.2577H19.0688L15.3569 39.457C6.55037 37.3634 2.20758e-09 29.447 2.20758e-09 20.0001C2.20758e-09 10.8255 6.17787 3.09454 14.6003 0.738333L10.7702 11.2655H10.7691L4.40176 28.7576L8.64046 28.758L14.0554 13.894H17.2409L11.826 28.758L16.0631 28.7587L21.1093 14.8911C21.8352 12.8969 20.6929 11.2655 18.5729 11.2655H15.0098L19.1011 0.0210185C19.3994 0.00777778 19.6987 2.20758e-09 20 2.20758e-09C31.0457 2.20758e-09 40 8.95426 40 20.0001C40 31.0456 31.0457 40.0001 20 40.0001ZM32.1011 13.8833H28.9164L24.4565 26.1202H27.6413L32.1011 13.8833Z" fill="#4987CE"/>
</svg>
