<svg width="120" height="67" viewBox="0 0 120 67" fill="none" xmlns="http://www.w3.org/2000/svg">
<rect width="120" height="66.6433" fill="black" fill-opacity="0"/>
<rect width="96" height="53.3146" fill="black" fill-opacity="0" transform="translate(0 66.6433) scale(1.25 -1.25)"/>
<rect width="62.3037" height="34.601" fill="black" fill-opacity="0" transform="translate(0 66.6433) scale(1.92605 -1.92605)"/>
<path d="M100.433 28.1043C95.1334 28.1387 90.1142 28.1811 88.7146 28.0567C85.8835 27.8107 83.9918 25.9586 83.7722 23.2334C83.624 21.4448 83.624 19.9631 83.7642 18.5529C84.0209 15.8991 86.2408 13.3723 88.7146 13.2506C89.601 13.203 91.9716 13.2083 96.2658 13.2268L108.762 13.2506V8.06744C108.762 8.06744 98.8085 8.05685 95.816 8.04363C91.7996 8.02511 89.7782 8.02246 88.4977 8.06744C85.6798 8.17592 83.3198 9.17869 81.4862 11.0414C79.7479 12.8008 78.7107 15.6001 78.5573 18.4338C78.4699 19.9631 78.4409 21.9607 78.5573 23.1487C78.8457 26.1967 79.8325 28.5885 81.4862 30.2633C83.2536 32.0625 85.9444 33.2029 88.5003 33.2373C90.5985 33.2637 108.762 33.2373 108.762 33.2373V28.0567C108.762 28.0567 103.246 28.0779 100.433 28.1043" fill="#8CC751"/>
<path d="M44.0195 8.34492V13.5228H56.3491V33.147H61.5535V13.5228H73.8831V8.34492H44.0195Z" fill="#8CC751"/>
<path d="M38.6172 18.1373C38.5801 15.3486 37.5959 12.9567 35.6883 11.0226C33.6986 8.99855 30.6638 8.15718 28.6768 8.05134C26.9491 7.95345 20.1413 7.9852 18.5432 8.05134C16.2916 8.14659 14.6512 8.81863 13.8284 9.43247C13.8205 9.4378 13.8125 9.43513 13.8125 9.42188V6.56607e-05H8.60547V33.237H13.8045C13.8045 33.237 13.7013 19.6322 13.8178 18.1505C14.0241 15.5179 16.0218 13.4488 18.5697 13.2266C20.6123 13.052 26.7427 13.0996 28.6662 13.2293C31.3067 13.4118 33.2567 15.4756 33.4102 18.2563C33.4605 19.2803 33.4078 33.2371 33.4078 33.2371H38.6175C38.6175 33.2371 38.6307 19.3332 38.6175 18.1373" fill="#8CC751"/>
<path d="M115.732 57.9544C116.808 57.9438 117.814 57.7321 117.811 56.8643C117.811 56.7161 117.832 56.5442 117.771 56.3484C117.626 56.0547 117.435 56.0706 117.245 56.097L117.314 56.0811C117.314 56.0811 116.631 56.269 116.078 56.2769H116.062C115.493 56.2584 115.329 55.6922 115.3 55.0678C115.29 54.962 115.287 54.8482 115.29 54.7238C115.303 53.7687 115.599 52.3161 115.792 51.5038C115.851 51.2154 116.025 51.017 116.364 50.9932C118.007 50.8662 120.047 50.8397 119.999 49.8581C119.999 49.8555 119.997 49.8476 119.999 49.8423C119.997 48.9956 119.171 48.8077 118.531 48.7919C118.507 48.7919 118.488 48.7919 118.467 48.7919C118.211 48.7945 116.75 48.9586 116.747 48.9586L116.594 48.9771L116.634 48.8263C116.784 48.2627 116.935 47.5907 117.242 46.9213C117.295 46.8022 117.322 46.6726 117.322 46.5323C117.327 46.236 117.218 45.9053 117.057 45.6592C116.901 45.4158 116.697 45.2623 116.546 45.257H116.525C116.218 45.2597 115.927 45.4634 115.591 46.0005C115.16 46.7202 114.924 47.678 114.469 48.7495C114.424 48.9056 114.289 49.0221 114.046 49.0406C112.257 49.3157 112.011 49.9613 111.998 50.4032C111.998 50.4032 111.998 50.4111 111.998 50.4243C112.014 51.1176 112.326 51.3451 112.713 51.361C112.713 51.361 112.715 51.361 112.718 51.361C112.72 51.361 112.724 51.361 112.724 51.361C112.843 51.3636 113.173 51.2393 113.406 51.234H113.433C113.499 51.2366 113.562 51.2393 113.626 51.279C113.695 51.3213 113.724 51.406 113.718 51.48C113.718 51.5197 113.713 51.5647 113.702 51.6203C113.554 52.2341 113.306 53.7634 113.292 54.5942C113.292 54.6736 113.292 54.745 113.298 54.8111C113.335 55.7081 113.517 56.5865 113.891 57.0971C114.319 57.6554 114.819 57.9385 115.658 57.9544H115.706C115.713 57.9544 115.724 57.9544 115.732 57.9544L115.732 57.9544ZM105.903 52.2156C105.868 54.1153 104.548 55.3377 104.448 57.0336C104.44 57.1474 104.434 57.2532 104.432 57.3564C104.442 57.8512 104.498 58.129 105.133 58.2798C105.265 58.3089 105.384 58.3222 105.495 58.3248C106.236 58.3354 106.543 57.7745 106.879 57.0601C107.204 56.359 107.527 55.5335 108.347 55.1895L108.49 55.1286L108.493 55.29C108.503 56.9225 109.469 57.7454 110.31 57.756C111.006 57.7613 111.647 57.2427 111.67 56.052C111.673 55.8827 111.662 55.7001 111.636 55.5044C111.599 55.4752 111.559 55.4647 111.504 55.462C111.326 55.4567 111.088 55.5996 110.871 55.6049C110.755 55.6128 110.623 55.5123 110.604 55.3456C110.61 55.0016 110.631 54.6206 110.636 54.2396C110.644 53.6576 110.612 53.0755 110.437 52.6601C110.26 52.2447 109.977 51.9854 109.403 51.9722C108.847 51.9616 108.387 52.3849 108.162 52.6045L107.979 52.7791L107.982 52.5278L107.987 52.2897C107.969 51.9007 107.903 51.7737 107.686 51.5065C107.434 51.2869 107.17 51.189 106.916 51.1837C106.521 51.1784 106.14 51.398 105.889 51.8081C105.9 51.9457 105.902 52.0806 105.902 52.2156H105.903ZM100.444 53.4776C100.428 53.4803 99.8963 55.1921 99.002 55.2662C99.002 55.2662 98.3829 55.3668 98.3961 54.7159C98.3802 54.3111 98.7797 53.6681 98.9835 53.3983C99.2348 53.0755 99.6793 52.4934 100.386 52.3796L100.492 52.3638L100.507 52.4696C100.523 52.5675 100.531 52.6601 100.537 52.7474C100.558 53.1998 100.449 53.4697 100.444 53.4776V53.4776ZM102.473 51.1864C102.434 50.7604 101.693 49.8608 101.185 49.9137C101.132 49.9164 101.087 49.9243 101.042 49.9428L101.026 49.9507C99.2692 50.4005 96.5731 52.713 96.7186 55.4938C96.7318 55.7875 96.7768 56.0891 96.8588 56.3986C97.0388 57.0469 97.56 57.5258 98.5469 57.4834C98.6765 57.4781 98.8167 57.4596 98.957 57.4358C99.4703 57.2956 100.074 56.949 100.351 56.5548L100.544 56.2849V56.6183C100.544 56.6474 100.544 56.6791 100.544 56.7056C100.587 57.5364 101.222 58.256 101.812 58.2296C102.016 58.219 102.222 58.1264 102.423 57.9068C102.492 57.8327 102.497 57.7348 102.51 57.6237C102.632 56.6394 102.627 55.7584 102.587 54.9223C102.553 54.2132 102.489 53.5332 102.457 52.8612C102.431 52.3002 102.423 51.7393 102.473 51.1864H102.473ZM92.1096 58.092H92.1119C92.7257 58.0973 93.1941 57.8353 93.4295 57.2797C93.538 57.0151 93.5856 56.2611 93.9799 55.2186C94.8451 53.5279 96.0119 50.3582 96.0119 50.2921C96.1971 49.247 95.5012 48.6966 94.6413 48.8236C93.7788 48.948 93.7814 49.9243 93.6015 50.9165C93.2232 52.9061 91.5642 54.7635 91.2732 56.7135V56.7373C91.2626 57.4041 91.5933 57.9729 92.104 58.092H92.1095L92.1096 58.092ZM86.2041 44.7385C84.5107 47.4451 82.4708 52.2711 82.4073 56.9913C82.4049 57.1051 82.4049 57.2215 82.4049 57.3406C82.4073 57.8168 82.6854 58.1449 83.3707 58.1872C83.3892 58.1872 83.4077 58.1872 83.4262 58.1899C84.0321 58.1899 84.1512 57.801 84.2808 57.584C84.3734 57.4411 84.5719 56.2822 84.6883 55.1948L84.6906 55.1842C85.1404 53.0437 85.7304 49.6782 86.9819 47.4769C87.3762 46.7969 88.1038 46.199 88.1038 45.5031C88.1038 45.4555 88.1014 45.4105 88.0958 45.3655C88.0323 44.7914 87.4741 44.4051 86.9449 44.3998C86.6539 44.3945 86.3813 44.503 86.2041 44.7385V44.7385ZM91.2841 43.913C90.0405 48.0114 87.7836 52.16 87.3471 57.121C87.3471 57.5866 87.4873 57.9597 87.9768 58.0576C88.0323 58.0629 88.0906 58.0682 88.1461 58.0708C88.5403 58.0762 88.9266 57.9332 89.141 57.6634C89.7204 56.9437 89.4796 56.269 89.6966 55.2186C90.0167 53.7184 90.8158 51.2234 90.8158 51.2208C90.8158 51.2181 92.0831 47.3182 93.1388 45.1803C93.2129 45.0163 93.3161 44.7094 93.3187 44.3998C93.3211 44.04 93.2129 43.6987 92.8054 43.5029L92.8031 43.5002C92.5755 43.3864 92.3692 43.3414 92.1892 43.3388C91.7368 43.3335 91.4167 43.606 91.2844 43.9129L91.2841 43.913ZM97.0523 43.7859C97.0444 44.4818 97.5285 45.2173 98.2535 45.2279C98.4784 45.2333 98.7297 45.1697 99.0023 45.0163C99.3621 44.757 99.4759 44.458 99.4812 44.1537C99.4944 43.5954 99.0737 43.0107 99.0023 42.9419C98.8991 42.8361 98.6874 42.6879 98.2138 42.68C98.145 42.68 98.0683 42.6827 97.9889 42.6879C97.9866 42.6879 97.9834 42.6879 97.981 42.6879C97.3275 42.8043 97.0656 43.2647 97.0523 43.7859H97.0523ZM78.7934 45.265C78.7855 45.9397 79.3385 46.6699 79.9999 46.6831C80.0105 46.6831 80.0158 46.6831 80.0184 46.6831C80.7592 46.6778 81.1429 46.0905 81.1561 45.4687C81.1585 44.8363 80.7857 44.2199 79.9522 44.204C79.9019 44.204 79.8491 44.204 79.7909 44.2119C79.0633 44.3601 78.8066 44.7914 78.7934 45.265H78.7934ZM79.7697 50.4534C79.5263 50.4534 79.3093 50.5619 79.1479 50.8821C78.7749 52.4299 77.6213 54.4063 77.5948 56.3986C77.5893 56.65 77.6054 56.9013 77.6425 57.1527C77.6821 57.4305 77.8568 58.0364 78.4944 58.0391C78.5209 58.0391 78.5447 58.0391 78.5711 58.0391C79.3569 57.9809 79.476 57.7983 79.4972 57.4702C79.4443 57.2506 79.423 57.0336 79.4257 56.8193C79.4601 55.0837 81.0317 53.5358 81.0397 51.9933C81.0397 51.8796 81.0342 51.7658 81.0185 51.652C80.9524 51.099 80.3068 50.4587 79.7855 50.4534H79.7696H79.7697ZM70.8956 57.7004C72.1365 57.7586 72.3058 55.425 72.7 54.6418C73.5573 53.0278 74.6817 52.5913 76.0152 52.2553C76.0152 52.2553 76.6185 52.0171 76.6159 51.3821C76.6182 51.3319 76.6135 51.2789 76.6079 51.226C76.4968 50.5857 76.3434 50.4773 75.9333 50.4058C75.7957 50.3847 75.6607 50.3767 75.5232 50.3741C74.1923 50.3503 72.8614 51.1361 72.4037 51.9616L72.237 52.2526L72.2053 51.9192C72.1736 51.4536 72.2185 50.3212 71.5729 50.3397C71.5706 50.3397 71.565 50.3397 71.5518 50.3397C70.6892 50.3185 70.4564 51.2393 70.3797 51.5435C70.1945 52.758 70.049 54.0544 70.0331 55.2583C70.0225 56.0018 70.0622 56.7135 70.1707 57.3379C70.3771 57.6951 70.848 57.7004 70.8956 57.7004L70.8956 57.7004ZM65.0192 55.4065C64.3895 55.8933 63.7016 56.2029 63.4397 56.2081L63.3259 56.2055L63.31 55.9091C63.31 55.0836 63.474 54.8508 63.7757 54.4592C64.1276 54.0041 64.8658 53.475 65.3923 53.475C65.5008 53.4776 65.7098 53.5041 65.805 53.557C65.9347 53.6205 65.9955 53.856 65.9902 53.9883C65.9743 54.409 65.5325 54.9937 65.0192 55.4064L65.0192 55.4065ZM66.6385 51.6996C66.3024 51.5832 65.9955 51.5329 65.7151 51.5303C64.5059 51.5091 63.691 52.3875 62.8602 53.1416L62.6141 53.3665L62.6856 53.0384C63.3074 50.21 63.6778 47.4769 64.2678 44.503C64.2757 44.45 64.2916 44.3416 64.2916 44.2093C64.2916 43.7198 64.1726 42.9446 63.3021 42.8996C63.273 42.8969 63.2412 42.8969 63.2095 42.8969C62.5189 42.8863 62.212 43.4129 62.0612 43.897C61.8125 44.7358 61.7966 45.8602 61.6616 46.9689C61.2357 50.2814 60.3784 54.2846 59.9868 57.2638C60.1297 57.9649 60.524 57.74 61.1246 57.9782L61.1222 57.9808C61.1672 57.9967 61.1672 58.0152 61.1751 58.0205C61.1806 58.0311 61.1806 58.0338 61.183 58.039C61.1853 58.0444 61.1853 58.047 61.1853 58.0496C61.1877 58.0576 61.1908 58.0628 61.1933 58.0708C61.1956 58.084 61.2038 58.1025 61.2118 58.1264C61.2329 58.1713 61.2621 58.2348 61.315 58.301C61.4155 58.428 61.5875 58.727 61.9155 58.6132C65.0059 57.6819 66.3553 57.1024 67.4612 55.38C67.6941 54.9857 67.8052 54.5201 67.8105 54.0491C67.829 53.0067 67.3236 51.9642 66.6384 51.6996L66.6385 51.6996ZM39.971 65.5268C39.971 65.6352 39.9869 65.749 40.0133 65.8601C40.1535 66.5004 41.1113 66.5719 41.114 66.5719C41.3521 66.5904 41.5876 66.5983 41.8204 66.5983C47.1438 66.5983 50.4432 62.0104 50.4458 56.4171C50.4482 55.4699 50.3532 54.4936 50.1548 53.5094V53.4988C50.1493 53.4988 50.1177 53.2104 49.9458 53.0437C49.7341 52.8717 49.5621 52.8109 49.4139 52.8109C49.0435 52.8003 48.7181 53.2474 48.435 53.7766C48.1413 54.3005 47.9138 54.8667 47.5513 55.0492C47.284 55.1683 47.0618 55.2292 46.8713 55.2292C46.2522 55.2186 46.0961 54.618 46.0934 53.9142C46.0934 53.3824 46.1781 52.7421 46.2522 52.115C46.2577 52.0753 46.2601 52.033 46.2601 51.9907C46.2495 51.7023 46.1675 51.3001 45.6119 51.2498C45.5907 51.2498 45.5695 51.2498 45.5457 51.2498C44.8261 51.2525 44.6117 51.7578 44.5165 52.123C44.4107 52.5648 44.1487 53.2448 44.1487 54.2105C44.1487 55.1736 44.3392 55.9091 44.3392 55.9091C44.6091 56.8034 45.0298 57.1395 45.506 57.3617C45.7336 57.449 45.9691 57.4887 46.2019 57.4887C47.0353 57.5813 48.0011 57.2215 48.0804 56.896C47.9878 57.92 47.8979 58.8593 47.6598 59.8038C47.2946 61.0632 46.8501 61.7194 46.5141 62.1533C45.2441 63.635 43.2386 64.6721 41.0743 64.6721C41.0002 64.6721 40.9261 64.6721 40.8652 64.6695C40.1668 64.7356 39.9815 65.0981 39.971 65.5267L39.971 65.5268ZM42.1405 45.6565C41.6934 45.9185 41.6273 46.3894 41.4129 47.0138C41.2859 47.371 39.5185 55.7107 39.5238 56.724C39.5238 56.724 39.5238 56.7294 39.5238 56.7399C39.4418 57.9411 40.2461 58.2745 40.2461 58.2745C40.3361 58.293 40.6271 58.301 40.6271 58.301C41.2806 58.3115 41.5505 57.5892 41.6643 57.2003C41.913 56.3166 41.8998 55.2609 42.1061 54.1787C42.4157 52.5569 43.5349 48.006 43.6143 47.3393C43.6513 47.0456 43.7016 46.7995 43.7016 46.5429C43.7571 45.8655 43.1195 45.4713 42.7517 45.4687C42.5612 45.4687 42.3522 45.5322 42.1405 45.6565V45.6565ZM34.5388 57.8221C35.2479 57.7956 35.695 57.5496 35.7003 56.9013V56.8749C35.6948 56.5203 35.4516 56.2954 35.1341 56.0414C34.9383 55.8801 34.7928 55.7319 34.7557 55.0995C34.7502 55.0096 34.7451 54.909 34.7451 54.7979C34.7475 53.7475 35.0362 51.7684 35.224 50.935C35.2743 50.6466 35.441 50.4058 35.7956 50.4111C36.0495 50.4085 36.4914 50.382 36.7031 50.3767C36.9306 50.3741 37.5392 50.3926 38.0842 50.2682C38.6372 50.1386 39.0737 49.8899 39.0711 49.3687C39.0711 49.366 39.0711 49.3554 39.0711 49.3501C39.0499 48.4797 38.3673 48.4479 37.7376 48.4373C37.7138 48.4373 35.9781 48.5458 35.9781 48.5458L36.0284 48.395C36.2057 47.8579 36.4253 47.1356 36.7825 46.4477C36.9333 46.2042 37.4519 44.4236 36.002 44.4236C35.5892 44.4792 35.2082 44.9157 34.8351 45.7148C34.3959 46.6911 34.3827 47.1118 33.8615 48.3606C33.8244 48.5061 33.6868 48.6675 33.4249 48.6569C32.9434 48.6649 32.5915 48.731 32.2343 48.731C32.1152 48.731 31.9697 48.7495 31.8401 48.7283C31.5808 48.7283 31.3082 48.9188 31.3082 48.9188C31.2156 49.0326 31.0463 49.112 30.996 49.5486V49.5724C31.0066 50.2709 31.2818 50.6677 31.6204 50.6624C31.6204 50.6624 32.856 50.6968 32.8693 50.6968C32.9328 50.6995 32.9963 50.7022 33.0598 50.7418C33.1232 50.7868 33.1524 50.8688 33.1497 50.9376C33.1497 50.9799 33.1418 51.0249 33.1313 51.0805C32.9831 51.7393 32.6629 54.0359 32.6629 54.827C32.6629 54.8482 32.6629 54.864 32.6653 54.8799C32.697 56.3034 33.1124 57.8327 34.4988 57.8221C34.5043 57.8221 34.5121 57.8194 34.5173 57.8194C34.5253 57.8194 34.5332 57.8221 34.5385 57.8221L34.5388 57.8221ZM26.3232 53.5279L26.3364 53.4353C26.4793 52.5939 27.3656 51.9033 27.8287 51.8875C27.8366 51.8875 27.8498 51.8875 27.8657 51.8901C28.1118 51.9166 28.2441 52.1283 28.2441 52.3135C28.2441 52.3241 28.2441 52.332 28.2441 52.3452C28.2441 53.0887 27.2863 53.5438 26.7439 53.5676C26.6962 53.5676 26.4555 53.5623 26.4158 53.5544L26.3232 53.5279L26.3232 53.5279ZM30.5962 54.8032C30.538 54.6973 30.4454 54.6286 30.366 54.6286C30.3025 54.6286 30.1993 54.6206 30.0564 54.7635C29.4347 55.38 28.9743 56.179 27.9107 56.1817C27.9107 56.1817 27.9028 56.1817 27.8895 56.1843C27.1381 56.1923 26.8788 55.8086 26.7412 55.1657L26.7174 55.0704L26.8127 55.0387C27.4926 54.9328 29.6755 54.2661 29.6596 52.5198C29.6596 52.2526 29.612 51.9563 29.5008 51.6282C29.2548 50.9059 28.6436 50.6043 27.9186 50.6016C26.6592 50.5963 25.3654 51.4695 25.0373 52.8559L25.0241 53.0199L24.8812 52.9405C24.7674 52.8797 24.6616 52.8532 24.5584 52.8532C24.1351 52.8532 23.7594 53.3401 23.7567 53.7898C23.7591 53.8269 23.7591 53.8613 23.7646 53.893C23.8705 54.4831 24.135 54.8297 24.561 55.0837L24.6139 55.1128V55.1763C24.6139 55.1974 24.6115 55.216 24.6115 55.2345C24.6195 57.1368 25.8868 57.9359 27.2865 57.9438C28.8952 57.9411 30.6149 56.8484 30.652 55.0493C30.652 55.0493 30.652 54.9011 30.5964 54.8032L30.5962 54.8032ZM2.30189 55.8562C2.30189 55.8562 2.11139 55.8298 2.0373 55.7742C1.82035 55.6181 1.72509 55.3826 1.72774 55.1313C1.73832 54.2132 2.82841 52.8956 3.52427 52.1918C4.17514 51.5435 4.50322 51.2895 4.83395 51.2816C4.94772 51.2816 5.0509 51.3186 5.1488 51.3742C5.30755 51.4589 5.36841 51.6335 5.36841 51.8213C5.33401 52.9829 3.34964 55.806 2.30189 55.8562V55.8562ZM7.74172 50.9641C7.74407 50.5752 7.59619 50.2074 7.59355 50.1994C7.10672 49.4348 6.47966 49.1252 5.77587 49.1226C4.55878 49.1199 3.10092 50.0963 1.96322 51.4377C0.820218 52.7765 -0.00263585 54.4698 4.46509e-06 55.8562C4.46509e-06 56.7347 0.320157 57.4781 1.08215 57.9676C1.31499 58.0787 1.54517 58.1317 1.77272 58.1317C3.01096 58.1422 4.21483 56.5865 4.96889 55.9092L5.13822 55.7636L5.1303 55.9859C4.99801 59.4996 3.84707 65.6009 3.84707 65.6273C3.84942 66.2491 4.27571 66.6433 4.74931 66.6433C4.93981 66.6433 5.14354 66.5798 5.32874 66.4369C6.28654 65.4977 6.22304 63.6403 6.49291 61.8438C6.93212 58.9651 6.74692 55.8324 7.31577 53.1548C7.49304 52.332 7.69147 51.4986 7.71793 51.2287C7.71793 51.2287 7.74175 51.0488 7.74175 50.9641H7.74172ZM14.5151 55.7874C14.8167 57.1659 14.8749 57.9861 16.6556 58.2454C16.7905 58.2481 16.9916 58.1475 17.1477 57.9729C17.3064 57.8009 17.4176 57.5628 17.4176 57.3088C17.4176 57.2321 17.4097 57.158 17.3911 57.0892C17.2085 56.56 16.8751 56.5309 16.6529 55.9356C16.518 55.5626 16.4756 55.1445 16.4756 54.7159C16.4756 53.7951 16.6767 52.8109 16.6741 52.0701C16.6556 51.3239 16.5153 50.9059 15.793 50.8953C15.7507 50.8953 15.703 50.898 15.6528 50.9032C15.6316 50.8979 15.3564 50.9932 15.1712 51.3239C14.3378 52.7553 13.462 54.7847 11.9751 54.9249C11.7052 54.8826 11.6073 54.6206 11.6152 54.3375C11.6176 53.4141 12.401 51.5753 12.7794 50.4746C12.8111 50.3556 12.8244 50.2444 12.8244 50.1412C12.8244 49.5221 12.1603 49.1385 11.7343 49.1411C11.3057 49.1438 10.8638 49.3528 10.6019 49.8502C10.2447 50.5117 9.73403 52.5966 9.73668 54.4143C9.73668 55.253 9.84517 56.0362 10.1124 56.5971C10.3876 57.158 10.7924 57.4914 11.438 57.494C11.4724 57.494 11.5067 57.494 11.5411 57.4913C12.7556 57.4331 13.507 56.3166 14.351 55.7213L14.4807 55.6313L14.5151 55.7874L14.5151 55.7874ZM20.0317 57.6581C20.4497 57.6581 20.7646 57.5549 20.8334 57.2903C21.18 55.2054 21.6165 53.8428 22.0928 52.0462C22.1166 51.9298 22.1298 51.8187 22.1298 51.7076C22.1243 51.1123 21.7911 50.6387 21.2223 50.6387C21.0371 50.6387 20.8201 50.6916 20.5873 50.8053C19.4919 51.5329 19.185 54.4989 18.9257 56.6447C18.9234 56.6712 18.9234 56.7029 18.9234 56.7373C18.9234 57.195 19.225 57.5602 19.6007 57.6263C19.7462 57.6448 19.8917 57.6581 20.032 57.6581L20.0317 57.6581ZM21.6565 44.7596C21.4131 45.003 21.3152 45.4105 21.3152 45.6962C21.3176 46.4768 22.0613 47.08 22.7783 47.08C23.2361 47.0774 23.7864 46.8498 23.9108 46.2466C23.9131 46.2175 23.9131 46.191 23.9131 46.1646C23.9131 45.384 23.2437 44.4897 22.442 44.4897C22.188 44.4897 21.9155 44.5744 21.6562 44.7596H21.6565ZM116.84 48.6384L116.737 48.612L116.84 48.6384Z" fill="black"/>
</svg>
