<svg width="120" height="27" viewBox="0 0 120 27" fill="none" xmlns="http://www.w3.org/2000/svg">
<rect width="120" height="26.1373" fill="black" fill-opacity="0"/>
<path d="M0.47854 0.889674H13.0349V14.8975H0.47854V0.889674ZM13.5135 0.411621H5.2077e-08V15.377H13.5135V0.411621Z" fill="black"/>
<path d="M119.743 18.9624H0V26.1373H119.743V18.9624Z" fill="#FEEB17"/>
<path d="M37.0786 10.1955L38.1327 6.29598L39.1953 10.1955H37.0786ZM42.1309 4.0454H45.4256V0.412351H41.8959V3.4106L40.7838 0.412351L35.4845 0.410889L34.369 3.42011V0.412351H30.84V4.0454H34.1374L30.8437 12.9302L26.8384 6.75672L30.6335 0.411133H24.7192L22.6202 5.01029V0.410889H17.0859V15.3778H22.5673V9.42148L26.2096 15.3775H35.5035L36.1434 13.2586H40.1258L40.7687 15.3775H46.3329L42.1309 4.0454Z" fill="black"/>
<path d="M84.9916 0.410889V6.0778H82.1033L82.104 0.410889H76.8289L76.8281 15.3763H82.1033V9.71109H84.9916V15.3763H90.2616V0.410889H84.9916Z" fill="black"/>
<path d="M104.618 11.7428H97.3306V9.71109H103.275L103.274 6.0778H97.3306V4.04394H104.618V0.410889H91.9062V15.3763L104.618 15.3778V11.7428Z" fill="black"/>
<path d="M2.37615 6.5144H4.3788L6.7264 10.3715L9.08107 6.5144H11.1059L6.75224 11.5628L2.37615 6.5144ZM5.2274 4.25968L6.73932 7.08436L8.24344 4.25968H10.0874L6.73152 8.0351L3.37979 4.25968H5.2274ZM4.37953 1.99399H9.09033L6.76419 4.89107L4.37953 1.99399ZM9.2505 6.23722L10.6196 3.99493H8.38484L9.59325 1.72559H3.87174L5.08576 3.99493H2.84542L4.21035 6.23722H1.83203L6.74078 14.2983L11.6337 6.23722H9.2505V6.23722Z" fill="black"/>
<path d="M52.3901 4.04397C52.4901 4.04397 54.5078 4.04397 54.5078 4.04397C54.5471 4.04835 55.5963 4.17244 55.5963 5.41742C55.5963 5.82624 55.4893 6.14096 55.2758 6.35305C54.9978 6.6295 54.6229 6.649 54.5152 6.64827C54.5152 6.64827 52.4903 6.64754 52.3904 6.64754C52.3901 6.54881 52.3901 4.1427 52.3901 4.04397ZM61.0004 15.2864C60.6155 14.9258 60.5455 13.4802 60.5441 13.4502C60.5441 13.4395 60.5519 13.1952 60.5519 12.7525C60.5519 12.4061 60.5468 11.9405 60.5297 11.3737C60.4661 9.22136 59.0278 8.66408 58.4741 8.52879C59.1799 8.27526 60.7325 7.33329 60.7325 5.21606C60.7325 5.14634 60.7311 5.07564 60.7274 5.00324C60.6604 3.59029 60.1789 2.475 59.2969 1.68661C57.7177 0.275616 55.3674 0.410427 55.3438 0.412133H47.1055V15.3775L52.3899 15.3768C52.3899 15.3768 52.3906 10.2989 52.3906 10.196C52.4876 10.196 53.7619 10.196 53.7619 10.196C54.9881 10.196 55.081 11.488 55.0854 11.5429C55.0861 11.5582 55.2068 12.9919 55.216 13.8312C55.2289 15.0733 55.5773 15.3554 55.5917 15.3661L55.6061 15.3775L61.0955 15.3768L61.0004 15.2864Z" fill="black"/>
<path d="M111.294 4.04397C111.394 4.04397 113.414 4.04543 113.414 4.04543C113.454 4.04982 114.501 4.17195 114.501 5.41742C114.501 5.82551 114.393 6.14023 114.18 6.35183C113.901 6.62852 113.527 6.64827 113.419 6.64754C113.419 6.64754 111.394 6.64754 111.294 6.64754C111.294 6.5488 111.294 4.1427 111.294 4.04397ZM119.905 15.2856C119.52 14.9251 119.449 13.4802 119.449 13.4488C119.449 13.4388 119.456 13.1945 119.456 12.7518C119.456 12.4061 119.451 11.9398 119.434 11.373C119.371 9.22136 117.932 8.66335 117.379 8.52879C118.084 8.27452 119.637 7.33329 119.637 5.21533C119.637 5.14561 119.636 5.07491 119.632 5.00251C119.565 3.59029 119.083 2.47427 118.201 1.68588C116.622 0.274884 114.272 0.409694 114.248 0.411401H106.009L106.008 15.3768H111.294C111.294 15.3768 111.295 10.2981 111.295 10.1953C111.392 10.1953 112.666 10.1953 112.666 10.1953C113.893 10.1953 113.986 11.4873 113.989 11.5421C113.991 11.5575 114.111 12.9904 114.121 13.8305C114.133 15.0726 114.481 15.3546 114.496 15.3661L114.511 15.3775L120 15.3768L119.905 15.2856Z" fill="black"/>
<path d="M75.8507 8.81599L71.097 8.81672C70.8756 11.158 69.7942 11.696 68.8544 11.7077V11.7087C68.8508 11.7087 68.8474 11.7077 68.8437 11.7077C68.843 11.7077 68.843 11.7077 68.8423 11.7077C67.7981 11.6953 66.5546 11.0351 66.5332 7.97227C66.5224 6.34772 66.8481 5.15588 67.4751 4.52376C67.8286 4.16833 68.2823 3.98622 68.8228 3.98062V3.97842C69.3764 3.97842 69.8383 4.16199 70.1969 4.52303C70.6384 4.96768 70.9305 5.69171 71.0604 6.64781C71.0604 6.64928 75.8663 6.64781 75.867 6.64781C75.8441 4.47208 75.1072 2.78195 73.6745 1.62424C72.4597 0.643024 70.7727 0.0833055 68.7942 0.00578349C66.8581 -0.0702759 65.0461 0.60597 63.6948 1.91019C62.1751 3.37653 61.3431 5.51107 61.3516 7.92156C61.3594 10.3177 62.1051 12.3189 63.5057 13.7108C64.8491 15.0458 66.7116 15.7542 68.8922 15.7598C70.9356 15.7654 72.7481 15.0821 73.9972 13.8349C75.212 12.6229 75.8534 10.9142 75.8519 8.89327L75.8507 8.81599Z" fill="black"/>
</svg>
