<svg width="120" height="53" viewBox="0 0 120 53" fill="none" xmlns="http://www.w3.org/2000/svg">
<rect width="119.999" height="52.6235" fill="black" fill-opacity="0"/>
<rect width="119.999" height="52.6235" fill="black" fill-opacity="0"/>
<path d="M26.3325 52.6235C40.8634 52.6235 52.6651 40.8566 52.6651 26.3175C52.6651 11.7778 40.8634 0 26.3325 0C11.7791 0 0 11.7778 0 26.3175C0 40.8566 11.7791 52.6235 26.3325 52.6235Z" fill="#A50034"/>
<path d="M25.2734 14.7678V37.8553H32.6132V35.7793H27.3889V14.7678H25.2734Z" fill="white"/>
<path d="M17.9233 21.0673C19.6695 21.0673 21.0771 19.6474 21.0771 17.9135C21.0771 16.1782 19.6695 14.7529 17.9233 14.7529C16.1771 14.7529 14.7695 16.1782 14.7695 17.9135C14.7695 19.6488 16.1771 21.0673 17.9233 21.0673Z" fill="white"/>
<path d="M27.3879 4.29482C27.1127 4.28119 26.5894 4.26416 26.3394 4.26416C14.1849 4.26416 4.29297 14.1595 4.29297 26.3065C4.29297 32.2066 6.58557 37.7368 10.7381 41.8955C14.9077 46.0446 20.4406 48.3372 26.3394 48.3372C32.2157 48.3372 37.7472 46.0446 41.9093 41.8955C46.0721 37.7368 48.3756 32.2066 48.3756 26.3065V25.3261H47.4838H32.6333V27.355H46.2758C46.2758 27.3993 46.2758 27.6146 46.2663 27.6705C45.5727 38.055 36.8997 46.2797 26.3394 46.2797C20.9939 46.2797 15.9815 44.201 12.2091 40.4259C8.42442 36.6665 6.33893 31.6582 6.33893 26.3058C6.33893 20.9841 8.42442 15.9499 12.2091 12.1789C15.9815 8.41128 20.9939 6.33261 26.3394 6.33261C26.5697 6.33261 27.1297 6.33261 27.3879 6.34623V4.29482Z" fill="white"/>
<path d="M72.4674 8.85847H64.5547V43.1132H88.8583V36.4453H72.4674V8.85847V8.85847ZM106.265 30.0594H112.709V36.0488C111.521 36.5011 109.204 36.9522 106.999 36.9522C99.8777 36.9522 97.5054 33.3351 97.5054 25.9886C97.5054 18.9827 99.7646 14.8519 106.886 14.8519C110.844 14.8519 113.105 16.096 114.967 18.4704L119.887 13.9472C116.891 9.65492 111.633 8.35498 106.717 8.35498C95.6366 8.35498 89.8162 14.4023 89.8162 25.9313C89.8162 37.4046 95.0725 43.6215 106.662 43.6215C111.974 43.6215 117.174 42.2657 119.999 40.2879V23.6708H106.265V30.0594Z" fill="#6B6B6B"/>
</svg>
