<svg width="169" height="29" viewBox="0 0 169 29" fill="none" xmlns="http://www.w3.org/2000/svg">
<rect width="169" height="29" fill="black" fill-opacity="0"/>
<path d="M40.624 18.272C40.624 19.888 40.08 21.12 38.992 21.968C37.904 22.816 36.408 23.24 34.504 23.24C33.448 23.24 32.392 23.104 31.336 22.832C30.296 22.56 29.472 22.152 28.864 21.608L29.344 17.744L31.912 17.984L31.888 19.88C32.432 20.168 32.896 20.344 33.28 20.408C33.664 20.456 33.992 20.48 34.264 20.48C35.112 20.48 35.808 20.376 36.352 20.168C36.896 19.944 37.168 19.44 37.168 18.656C37.168 17.792 36.848 17.216 36.208 16.928C35.568 16.624 34.816 16.392 33.952 16.232C33.2 16.104 32.44 15.92 31.672 15.68C30.92 15.424 30.288 15.016 29.776 14.456C29.264 13.88 29.008 13.032 29.008 11.912C29.008 10.168 29.6 8.944 30.784 8.24C31.968 7.52 33.264 7.16 34.672 7.16C35.696 7.16 36.672 7.32 37.6 7.64C38.528 7.944 39.24 8.36 39.736 8.888L39.88 12.272L37.312 12.512L37.096 10.688C36.696 10.416 36.288 10.232 35.872 10.136C35.472 10.04 35.08 9.992 34.696 9.992C34.056 9.992 33.52 10.104 33.088 10.328C32.672 10.552 32.464 10.944 32.464 11.504C32.464 12.16 32.736 12.616 33.28 12.872C33.824 13.128 34.448 13.336 35.152 13.496C35.792 13.624 36.536 13.808 37.384 14.048C38.248 14.272 39 14.704 39.64 15.344C40.296 15.968 40.624 16.944 40.624 18.272ZM54.5934 23H42.5454V20.264H44.2254V10.136H42.5454V7.4H54.4494L54.9294 11.96L52.1934 12.2L51.7134 10.136H47.4414V13.808H54.0174V16.52H47.4414V20.264H51.8574L52.3374 18.2L55.0734 18.44L54.5934 23ZM71.1099 23H67.1259L64.0299 17.048H61.9179V20.264H63.5979V23H57.0219V20.264H58.7019V10.136H57.0219V7.4H64.0779C66.0139 7.4 67.5019 7.8 68.5419 8.6C69.5819 9.384 70.1019 10.56 70.1019 12.128C70.1019 13.184 69.8299 14.072 69.2859 14.792C68.7419 15.496 68.0219 16.024 67.1259 16.376L69.2379 20.264H71.1099V23ZM66.6459 12.2C66.6459 11.416 66.4139 10.88 65.9499 10.592C65.4859 10.288 64.6699 10.136 63.5019 10.136H61.9179V14.504H63.4539C64.6859 14.504 65.5259 14.304 65.9739 13.904C66.4219 13.504 66.6459 12.936 66.6459 12.2ZM87.2335 10.136H85.8175L80.2735 23H78.0415L72.5215 10.136H71.0575V7.4H77.5135V10.136H76.0975L79.2895 18.032H79.4335L82.5535 10.136H81.0895V7.4H87.2335V10.136ZM95.1292 23H88.5532V20.264H90.2332V10.136H88.5532V7.4H95.1292V10.136H93.4492V20.264H95.1292V23ZM110.303 21.344C109.791 21.904 108.967 22.36 107.831 22.712C106.711 23.064 105.591 23.24 104.471 23.24C102.247 23.24 100.383 22.528 98.8789 21.104C97.3749 19.664 96.6229 17.784 96.6229 15.464C96.6229 14.248 96.8789 13 97.3909 11.72C97.9029 10.44 98.7429 9.36 99.9109 8.48C101.079 7.6 102.647 7.16 104.615 7.16C105.943 7.16 107.087 7.36 108.047 7.76C109.007 8.144 109.735 8.568 110.231 9.032L110.615 12.656L107.999 12.896L107.663 10.832C107.247 10.56 106.743 10.352 106.151 10.208C105.559 10.064 104.999 9.992 104.471 9.992C103.127 9.992 102.055 10.44 101.255 11.336C100.471 12.232 100.079 13.536 100.079 15.248C100.079 17.056 100.511 18.368 101.375 19.184C102.239 20 103.343 20.408 104.687 20.408C105.951 20.408 106.943 20.192 107.663 19.76L107.999 17.432L110.615 17.672L110.303 21.344ZM124.726 23H112.678V20.264H114.358V10.136H112.678V7.4H124.582L125.062 11.96L122.326 12.2L121.846 10.136H117.574V13.808H124.15V16.52H117.574V20.264H121.99L122.47 18.2L125.206 18.44L124.726 23Z" fill="white"/>
<path d="M142.011 17.096H141.243V23H138.747L138.435 21.368C137.955 21.928 137.339 22.384 136.587 22.736C135.851 23.072 134.979 23.24 133.971 23.24C131.779 23.24 130.035 22.48 128.739 20.96C127.459 19.44 126.819 17.56 126.819 15.32C126.819 13.08 127.499 11.16 128.859 9.56C130.219 7.96 132.219 7.16 134.859 7.16C136.123 7.16 137.267 7.344 138.291 7.712C139.331 8.08 140.107 8.52 140.619 9.032L141.051 12.416L138.459 12.656L138.027 10.832C137.611 10.56 137.083 10.352 136.443 10.208C135.819 10.064 135.243 9.992 134.715 9.992C133.435 9.992 132.371 10.424 131.523 11.288C130.691 12.152 130.275 13.48 130.275 15.272C130.275 17 130.667 18.288 131.451 19.136C132.251 19.984 133.283 20.408 134.547 20.408C135.603 20.408 136.443 20.128 137.067 19.568C137.691 19.008 138.003 18.216 138.003 17.192V17.096H134.955V14.384H142.011V17.096ZM150.34 23H143.764V20.264H145.444V10.136H143.764V7.4H150.34V10.136H148.66V20.264H150.34V23ZM167.668 15.128C167.668 17.496 166.972 19.4 165.58 20.84C164.188 22.28 162.26 23 159.796 23H152.452V20.264H154.132V10.136H152.452V7.4H159.604C162.276 7.4 164.284 8.112 165.628 9.536C166.988 10.96 167.668 12.824 167.668 15.128ZM164.212 15.176C164.212 11.816 162.652 10.136 159.532 10.136H157.348V20.264H159.532C161.036 20.264 162.188 19.864 162.988 19.064C163.804 18.264 164.212 16.968 164.212 15.176Z" fill="#0091EA"/>
<path d="M8.24418 3L7.63428 6.05021C6.79879 6.36707 6.02464 6.81724 5.32225 7.39243L2.36108 6.39311L0 10.4753L2.34473 12.5327C2.27106 12.9817 2.23355 13.4295 2.23355 13.8684C2.23355 14.3073 2.27106 14.7552 2.34473 15.2041L0 17.2615L2.36108 21.3437L5.32225 20.3428C6.01961 20.9121 6.80548 21.369 7.63428 21.685L8.24418 24.7368H11.2397L13.398 22.5814L13.4732 22.201C13.2422 21.5422 13.1168 20.8484 13.1168 20.1387C13.1168 20.1127 13.1208 20.0862 13.1217 20.0603C12.9501 20.1297 12.7776 20.201 12.6001 20.2562L12.1259 20.4032L11.5929 23.0648H9.61766L9.08462 20.4016L8.61044 20.2546C7.67197 19.962 6.8186 19.4672 6.07603 18.7834L5.70977 18.447L3.12468 19.3206L2.13708 17.611L4.18095 15.8164L4.07303 15.3331C3.96337 14.839 3.90789 14.3458 3.90789 13.8684C3.90789 13.391 3.96253 12.8978 4.07303 12.4037L4.18095 11.9204L2.13708 10.1259L3.12468 8.41625L5.7114 9.28984L6.07767 8.95346C6.82108 8.26959 7.67197 7.77485 8.61044 7.48224L9.08462 7.33365L9.61766 4.67206H11.5929L12.1259 7.33528L12.6001 7.48224C13.5386 7.77485 14.3903 8.26959 15.1329 8.95346L15.4991 9.28984L18.0858 8.41625L19.0734 10.1259L17.0296 11.9204L17.1375 12.4037C17.248 12.8978 17.3026 13.391 17.3026 13.8684C17.3026 13.9913 17.2889 14.1178 17.2814 14.2423C17.8172 14.0501 18.3835 13.9298 18.9753 13.8896C18.9753 13.883 18.977 13.8751 18.977 13.8684C18.977 13.4295 18.9395 12.9817 18.8658 12.5327L21.2105 10.4753L18.8494 6.39311L15.8883 7.39407C15.1909 6.82473 14.405 6.36786 13.5762 6.05184L12.9663 3H8.24418ZM10.6053 9.68826C8.30339 9.68826 6.4194 11.5697 6.4194 13.8684C6.4194 16.1672 8.30339 18.0486 10.6053 18.0486C12.9071 18.0486 14.7911 16.1672 14.7911 13.8684C14.7911 11.5697 12.9071 9.68826 10.6053 9.68826ZM10.6053 11.3603C12.0022 11.3603 13.1168 12.4733 13.1168 13.8684C13.1168 15.2635 12.0022 16.3765 10.6053 16.3765C9.20827 16.3765 8.09375 15.2635 8.09375 13.8684C8.09375 12.4733 9.20827 11.3603 10.6053 11.3603ZM19.3956 15.5405C16.8625 15.5405 14.7911 17.6091 14.7911 20.1387C14.7911 21.1027 15.0945 21.9987 15.607 22.7398L12.5249 25.8178L13.7087 27L16.7908 23.922C17.533 24.4339 18.4302 24.7368 19.3956 24.7368C21.9286 24.7368 24 22.6683 24 20.1387C24 17.6091 21.9286 15.5405 19.3956 15.5405ZM19.3956 17.2125C21.0237 17.2125 22.3257 18.5127 22.3257 20.1387C22.3257 21.7646 21.0237 23.0648 19.3956 23.0648C17.7674 23.0648 16.4655 21.7646 16.4655 20.1387C16.4655 18.5127 17.7674 17.2125 19.3956 17.2125Z" fill="#0091EA"/>
</svg>
