<svg width="168" height="24" viewBox="0 0 168 24" fill="none" xmlns="http://www.w3.org/2000/svg">
<rect width="167.668" height="24" fill="black" fill-opacity="0"/>
<path d="M40.6233 15.2722C40.6233 16.8882 40.0793 18.1202 38.9913 18.9682C37.9033 19.8162 36.4073 20.2402 34.5033 20.2402C33.4473 20.2402 32.3913 20.1042 31.3353 19.8322C30.2953 19.5602 29.4713 19.1522 28.8633 18.6082L29.3433 14.7442L31.9113 14.9842L31.8873 16.8802C32.4313 17.1682 32.8953 17.3442 33.2793 17.4082C33.6633 17.4562 33.9913 17.4802 34.2633 17.4802C35.1113 17.4802 35.8073 17.3762 36.3513 17.1682C36.8953 16.9442 37.1673 16.4402 37.1673 15.6562C37.1673 14.7922 36.8473 14.2162 36.2073 13.9282C35.5673 13.6242 34.8153 13.3922 33.9513 13.2322C33.1993 13.1042 32.4393 12.9202 31.6713 12.6802C30.9193 12.4242 30.2873 12.0162 29.7753 11.4562C29.2633 10.8802 29.0073 10.0322 29.0073 8.91216C29.0073 7.16816 29.5993 5.94416 30.7833 5.24016C31.9673 4.52016 33.2633 4.16016 34.6713 4.16016C35.6953 4.16016 36.6713 4.32016 37.5993 4.64016C38.5273 4.94416 39.2393 5.36016 39.7353 5.88816L39.8793 9.27216L37.3113 9.51216L37.0953 7.68816C36.6953 7.41616 36.2873 7.23216 35.8713 7.13616C35.4713 7.04016 35.0793 6.99216 34.6953 6.99216C34.0553 6.99216 33.5193 7.10416 33.0873 7.32816C32.6713 7.55216 32.4633 7.94416 32.4633 8.50416C32.4633 9.16016 32.7353 9.61616 33.2793 9.87216C33.8233 10.1282 34.4473 10.3362 35.1513 10.4962C35.7913 10.6242 36.5353 10.8082 37.3833 11.0482C38.2473 11.2722 38.9993 11.7042 39.6393 12.3442C40.2953 12.9682 40.6233 13.9442 40.6233 15.2722Z" fill="black"/>
<path d="M54.5927 20.0002H42.5447V17.2642H44.2247V7.13616H42.5447V4.40016H54.4487L54.9287 8.96016L52.1927 9.20016L51.7127 7.13616H47.4407V10.8082H54.0167V13.5202H47.4407V17.2642H51.8567L52.3367 15.2002L55.0727 15.4402L54.5927 20.0002Z" fill="black"/>
<path d="M71.1092 20.0002H67.1252L64.0292 14.0482H61.9172V17.2642H63.5972V20.0002H57.0212V17.2642H58.7012V7.13616H57.0212V4.40016H64.0772C66.0132 4.40016 67.5012 4.80016 68.5412 5.60016C69.5812 6.38416 70.1012 7.56016 70.1012 9.12816C70.1012 10.1842 69.8292 11.0722 69.2852 11.7922C68.7412 12.4962 68.0212 13.0242 67.1252 13.3762L69.2372 17.2642H71.1092V20.0002ZM66.6452 9.20016C66.6452 8.41616 66.4132 7.88016 65.9492 7.59216C65.4852 7.28816 64.6692 7.13616 63.5012 7.13616H61.9172V11.5042H63.4532C64.6852 11.5042 65.5252 11.3042 65.9732 10.9042C66.4212 10.5042 66.6452 9.93616 66.6452 9.20016Z" fill="black"/>
<path d="M87.2328 7.13616H85.8168L80.2728 20.0002H78.0408L72.5208 7.13616H71.0568V4.40016H77.5128V7.13616H76.0968L79.2888 15.0322H79.4328L82.5528 7.13616H81.0888V4.40016H87.2328V7.13616Z" fill="black"/>
<path d="M95.1285 20.0002H88.5525V17.2642H90.2325V7.13616H88.5525V4.40016H95.1285V7.13616H93.4485V17.2642H95.1285V20.0002Z" fill="black"/>
<path d="M110.302 18.3442C109.79 18.9042 108.966 19.3602 107.83 19.7122C106.71 20.0642 105.59 20.2402 104.47 20.2402C102.246 20.2402 100.382 19.5282 98.8782 18.1042C97.3742 16.6642 96.6222 14.7842 96.6222 12.4642C96.6222 11.2482 96.8782 10.0002 97.3902 8.72016C97.9022 7.44016 98.7422 6.36016 99.9102 5.48016C101.078 4.60016 102.646 4.16016 104.614 4.16016C105.942 4.16016 107.086 4.36016 108.046 4.76016C109.006 5.14416 109.734 5.56816 110.23 6.03216L110.614 9.65616L107.998 9.89616L107.662 7.83216C107.246 7.56016 106.742 7.35216 106.15 7.20816C105.558 7.06416 104.998 6.99216 104.47 6.99216C103.126 6.99216 102.054 7.44016 101.254 8.33616C100.47 9.23216 100.078 10.5362 100.078 12.2482C100.078 14.0562 100.51 15.3682 101.374 16.1842C102.238 17.0002 103.342 17.4082 104.686 17.4082C105.95 17.4082 106.942 17.1922 107.662 16.7602L107.998 14.4322L110.614 14.6722L110.302 18.3442Z" fill="black"/>
<path d="M124.725 20.0002H112.677V17.2642H114.357V7.13616H112.677V4.40016H124.581L125.061 8.96016L122.325 9.20016L121.845 7.13616H117.573V10.8082H124.149V13.5202H117.573V17.2642H121.989L122.469 15.2002L125.205 15.4402L124.725 20.0002Z" fill="black"/>
<path d="M142.01 14.0962H141.242V20.0002H138.746L138.434 18.3682C137.954 18.9282 137.338 19.3842 136.586 19.7362C135.85 20.0722 134.978 20.2402 133.97 20.2402C131.778 20.2402 130.034 19.4802 128.738 17.9602C127.458 16.4402 126.818 14.5602 126.818 12.3202C126.818 10.0802 127.498 8.16016 128.858 6.56016C130.218 4.96016 132.218 4.16016 134.858 4.16016C136.122 4.16016 137.266 4.34416 138.29 4.71216C139.33 5.08016 140.106 5.52016 140.618 6.03216L141.05 9.41616L138.458 9.65616L138.026 7.83216C137.61 7.56016 137.082 7.35216 136.442 7.20816C135.818 7.06416 135.242 6.99216 134.714 6.99216C133.434 6.99216 132.37 7.42416 131.522 8.28816C130.69 9.15216 130.274 10.4802 130.274 12.2722C130.274 14.0002 130.666 15.2882 131.45 16.1362C132.25 16.9842 133.282 17.4082 134.546 17.4082C135.602 17.4082 136.442 17.1282 137.066 16.5682C137.69 16.0082 138.002 15.2162 138.002 14.1922V14.0962H134.954V11.3842H142.01V14.0962Z" fill="#0091EA"/>
<path d="M150.34 20.0002H143.764V17.2642H145.444V7.13616H143.764V4.40016H150.34V7.13616H148.66V17.2642H150.34V20.0002Z" fill="#0091EA"/>
<path d="M167.667 12.1282C167.667 14.4962 166.971 16.4002 165.579 17.8402C164.187 19.2802 162.259 20.0002 159.795 20.0002H152.451V17.2642H154.131V7.13616H152.451V4.40016H159.603C162.275 4.40016 164.283 5.11216 165.627 6.53616C166.987 7.96016 167.667 9.82416 167.667 12.1282ZM164.211 12.1762C164.211 8.81616 162.651 7.13616 159.531 7.13616H157.347V17.2642H159.531C161.035 17.2642 162.187 16.8642 162.987 16.0642C163.803 15.2642 164.211 13.9682 164.211 12.1762Z" fill="#0091EA"/>
<path d="M8.24418 0L7.63428 3.05021C6.79879 3.36707 6.02464 3.81724 5.32225 4.39243L2.36108 3.39311L0 7.4753L2.34473 9.53273C2.27106 9.98168 2.23355 10.4295 2.23355 10.8684C2.23355 11.3073 2.27106 11.7552 2.34473 12.2041L0 14.2615L2.36108 18.3437L5.32225 17.3428C6.01961 17.9121 6.80548 18.369 7.63428 18.685L8.24418 21.7368H11.2397L13.398 19.5814L13.4732 19.201C13.2422 18.5422 13.1168 17.8484 13.1168 17.1387C13.1168 17.1127 13.1208 17.0862 13.1217 17.0603C12.9501 17.1297 12.7776 17.201 12.6001 17.2562L12.1259 17.4032L11.5929 20.0648H9.61766L9.08462 17.4016L8.61044 17.2546C7.67197 16.962 6.8186 16.4672 6.07603 15.7834L5.70977 15.447L3.12468 16.3206L2.13708 14.611L4.18095 12.8164L4.07303 12.3331C3.96337 11.839 3.90789 11.3458 3.90789 10.8684C3.90789 10.391 3.96253 9.89782 4.07303 9.40373L4.18095 8.9204L2.13708 7.12587L3.12468 5.41625L5.7114 6.28984L6.07767 5.95346C6.82108 5.26959 7.67197 4.77485 8.61044 4.48224L9.08462 4.33365L9.61766 1.67206H11.5929L12.1259 4.33528L12.6001 4.48224C13.5386 4.77485 14.3903 5.26959 15.1329 5.95346L15.4991 6.28984L18.0858 5.41625L19.0734 7.12587L17.0296 8.9204L17.1375 9.40373C17.248 9.89782 17.3026 10.391 17.3026 10.8684C17.3026 10.9913 17.2889 11.1178 17.2814 11.2423C17.8172 11.0501 18.3835 10.9298 18.9753 10.8896C18.9753 10.883 18.977 10.8751 18.977 10.8684C18.977 10.4295 18.9395 9.98168 18.8658 9.53273L21.2105 7.4753L18.8494 3.39311L15.8883 4.39407C15.1909 3.82473 14.405 3.36786 13.5762 3.05184L12.9663 0H8.24418ZM10.6053 6.68826C8.30339 6.68826 6.4194 8.56968 6.4194 10.8684C6.4194 13.1672 8.30339 15.0486 10.6053 15.0486C12.9071 15.0486 14.7911 13.1672 14.7911 10.8684C14.7911 8.56968 12.9071 6.68826 10.6053 6.68826ZM10.6053 8.36032C12.0022 8.36032 13.1168 9.47333 13.1168 10.8684C13.1168 12.2635 12.0022 13.3765 10.6053 13.3765C9.20827 13.3765 8.09375 12.2635 8.09375 10.8684C8.09375 9.47333 9.20827 8.36032 10.6053 8.36032ZM19.3956 12.5405C16.8625 12.5405 14.7911 14.6091 14.7911 17.1387C14.7911 18.1027 15.0945 18.9987 15.607 19.7398L12.5249 22.8178L13.7087 24L16.7908 20.922C17.533 21.4339 18.4302 21.7368 19.3956 21.7368C21.9286 21.7368 24 19.6683 24 17.1387C24 14.6091 21.9286 12.5405 19.3956 12.5405ZM19.3956 14.2125C21.0237 14.2125 22.3257 15.5127 22.3257 17.1387C22.3257 18.7646 21.0237 20.0648 19.3956 20.0648C17.7674 20.0648 16.4655 18.7646 16.4655 17.1387C16.4655 15.5127 17.7674 14.2125 19.3956 14.2125Z" fill="#01579B"/>
</svg>
