<svg width="97" height="18" viewBox="0 0 97 18" fill="none" xmlns="http://www.w3.org/2000/svg">
<rect width="96.1612" height="17.2425" fill="black" fill-opacity="0" transform="translate(0 0.631348)"/>
<rect width="96.1612" height="17.2425" fill="black" fill-opacity="0" transform="translate(0 0.631348)"/>
<path d="M0.0992332 10.0484L0.198479 2.22296L0.945952 1.47673L1.69343 0.730499L12.259 0.678828C22.5783 0.628359 22.84 0.636541 23.4812 1.02975C23.8583 1.26097 24.3 1.78913 24.5189 2.27054C24.8725 3.04842 24.9002 3.63998 24.9043 10.4912L24.9087 17.8736H23.1224H21.3361V10.9512C21.3361 4.92244 21.2958 3.98868 21.0242 3.71745C20.766 3.4596 20.1513 3.40601 17.4516 3.40601H14.191V10.6398V17.8736H12.504H10.8169V10.6398V3.40601H7.47359C4.4867 3.40601 4.09526 3.44465 3.8018 3.76844C3.50945 4.09102 3.47332 4.88648 3.47332 11.0022V17.8736L1.73667 17.8738L0 17.8739L0.0992454 10.0484H0.0992332ZM29.9183 17.4783C29.5626 17.2617 29.094 16.7938 28.8771 16.4386C28.5046 15.8285 28.4827 15.4297 28.4827 9.25251C28.4827 3.07532 28.5046 2.67651 28.8771 2.06644C29.094 1.71119 29.5626 1.24331 29.9183 1.02671C30.5347 0.651435 30.9321 0.632852 38.3554 0.632147L46.1455 0.631348V2.01865V3.40595H39.3094H32.4732L32.1642 3.84643C31.9417 4.16374 31.8553 4.77253 31.8553 6.02387V7.76085L38.6256 7.81299L45.3958 7.86514V9.25245V10.6398L38.6256 10.6919L31.8553 10.744V12.481C31.8553 13.7324 31.9417 14.3411 32.1642 14.6585L32.4732 15.0989H39.3094H46.1455V16.4862V17.8735L38.3554 17.8727C30.9321 17.8719 30.5347 17.8535 29.9183 17.4782V17.4783ZM49.9165 9.25251V0.631406H51.7028H53.4891V9.25251V17.8736H51.7028H49.9165V9.25251ZM57.5301 17.5842C56.8577 17.1139 56.5857 16.2358 56.8576 15.4131C57.0925 14.7024 57.83 14.0024 64.8905 7.78826C66.4248 6.43791 68.1562 4.89949 68.7381 4.36954L69.7961 3.40601H63.5281H57.2601V2.01871V0.631406H65.2144H73.1687L73.7488 1.21072C74.4579 1.9187 74.5258 2.90454 73.9187 3.67521C73.6931 3.96167 71.2594 6.181 68.5106 8.60705C65.7618 11.0331 63.0214 13.4845 62.4208 14.0545L61.3289 15.091L67.7297 15.095L74.1305 15.099V16.4863V17.8736H66.0372C59.2625 17.8736 57.8765 17.8265 57.5301 17.5842V17.5842ZM78.6752 17.4237C77.3156 16.5168 77.3068 16.4569 77.3064 8.11293L77.306 0.631406H78.9931H80.6801V7.46883C80.6801 14.042 80.6954 14.3216 81.0771 14.7026C81.4543 15.0793 81.7387 15.099 86.8021 15.099C91.7118 15.099 92.156 15.0705 92.4586 14.7366C92.751 14.414 92.7871 13.6185 92.7871 7.50277V0.631406H94.4742H96.1612V8.28773C96.1612 15.6181 96.1442 15.9716 95.7611 16.5905C94.981 17.8509 94.8205 17.8736 86.6834 17.8736C79.3892 17.8736 79.3459 17.8712 78.6751 17.4237H78.6752Z" fill="#21BBEF"/>
</svg>
