<svg width="11" height="11" viewBox="0 0 11 11" fill="none" xmlns="http://www.w3.org/2000/svg">
<path d="M3.50109 3.76604H8.5011V6.21088H3.50109V3.76604ZM8.89609 0.734436C7.99609 0.387269 6.9261 0.343262 5.99609 0.343262C5.06609 0.343262 3.99609 0.387269 3.09609 0.734436C1.76109 1.24296 0.996094 2.32358 0.996094 3.69759V10.1226H10.9961V3.69759C10.9961 2.32358 10.2311 1.24296 8.89609 0.734436ZM8.9961 7.13014C8.9961 7.83915 8.4061 8.41124 7.6811 8.41124L8.2461 8.95889V9.14469H7.4961L6.74609 8.41124H5.33109L4.58109 9.14469H3.74609V8.95889L4.30609 8.41124C3.58609 8.41124 2.99609 7.83426 2.99609 7.13014V3.76604C2.99609 2.48005 4.49609 2.29914 5.99609 2.29914C7.6561 2.29914 8.9961 2.48494 8.9961 3.76604V7.13014Z" fill="#0091EA"/>
</svg>
