<svg width="53" height="57" viewBox="0 0 53 57" fill="none" xmlns="http://www.w3.org/2000/svg">
<rect width="51.6394" height="56" fill="black" fill-opacity="0" transform="translate(0.679688 0.265625)"/>
<path d="M0.679688 0.265625V47.4941H22.1136V47.3097L18.0046 43.2048H4.97319V4.55913H37.1744V19.8673L41.4679 24.165V0.265625H0.679688ZM9.26669 8.85263V13.1461H17.8537V8.85263H9.26669ZM24.2939 8.85263V13.1461H32.8809V8.85263H24.2939ZM9.26669 17.4396V21.7331H17.8537V17.4396H9.26669ZM24.2939 17.4396V21.7331H32.8809V17.4396H24.2939ZM37.1409 25.9092L32.6965 30.3537H26.4072V36.643L21.9627 41.0874L26.4072 45.5319V51.8212H32.6965L37.1409 56.2656L41.5853 51.8212H47.8747V45.5319L52.3191 41.0874L47.8747 36.643V30.3537H41.5853L37.1409 25.9092ZM9.26669 26.0266V30.3201H17.8537V26.0266H9.26669ZM37.1409 31.9805L39.8076 34.6472H43.5812V38.4208L46.2478 41.0874L43.5812 43.7541V44.643V47.5277H39.8076L37.1409 50.1943L34.4742 47.5277H30.7007V43.7541L28.034 41.0874L30.7007 38.4208V34.6472H34.4742L37.1409 31.9805ZM9.26669 34.6136V38.9071H17.8537V34.6136H9.26669Z" fill="white"/>
</svg>
