<svg width="54" height="54" viewBox="0 0 54 54" fill="none" xmlns="http://www.w3.org/2000/svg">
<rect width="54" height="54" fill="black" fill-opacity="0"/>
<rect width="50" height="35.7143" fill="black" fill-opacity="0" transform="translate(2 9)"/>
<rect width="50" height="35.7143" fill="black" fill-opacity="0" transform="translate(2 9)"/>
<path d="M7.35714 9V33.2188L3.28348 37.3482C2.47433 38.1574 2 39.2734 2 40.4174C2 42.7751 3.93917 44.7143 6.29687 44.7143H47.7031C50.0608 44.7143 52 42.7751 52 40.4174C52 39.2734 51.5257 38.1574 50.7165 37.3482L46.6429 33.2188V9H7.35714ZM10.9286 12.5714H43.0714V32.2143H10.9286V12.5714ZM9.92411 35.7857H44.0759L48.2054 39.8594C48.3449 39.9989 48.4286 40.2221 48.4286 40.4174C48.4286 40.8499 48.1356 41.1429 47.7031 41.1429H6.29687C5.8644 41.1429 5.57143 40.8499 5.57143 40.4174C5.57143 40.2221 5.65513 39.9989 5.79464 39.8594L9.92411 35.7857Z" fill="#0091EA"/>
</svg>
