<svg width="97" height="25" viewBox="0 0 97 25" fill="none" xmlns="http://www.w3.org/2000/svg">
<rect width="96.1629" height="23.1928" fill="black" fill-opacity="0" transform="translate(0 0.87793)"/>
<path d="M6.63281 17.4246V19.0815H13.2609V17.4246H10.777V9.14307H6.63281V10.8174H9.11723V17.4246H6.63281Z" fill="#E70026"/>
<path d="M18.2273 22.4159H1.65748V5.84785H12.4311V4.19189H0V24.0705H19.8843V11.645H18.2273V22.4159Z" fill="#E70026"/>
<path d="M19.888 0.87793H18.2337V4.19253H14.916V5.84669H18.2337V9.16128H19.888V5.84669H23.1998V4.19253H19.888V0.87793Z" fill="#E70026"/>
<path d="M25.6836 4.19238V24.0704H96.1625V4.19238H25.6836Z" fill="#E70026"/>
<path d="M88.1979 9.12891C87.7095 9.12891 87.2798 9.20399 86.8995 9.35491C86.5251 9.50536 86.2074 9.70511 85.9536 9.95453C85.697 10.2071 85.5024 10.4937 85.3706 10.8179C85.2338 11.1408 85.1667 11.4773 85.1667 11.8248C85.1667 12.2569 85.2338 12.62 85.3706 12.9142C85.5024 13.2088 85.6817 13.4545 85.901 13.6489C86.1167 13.8463 86.3661 14.0032 86.6487 14.1281C86.928 14.2495 87.2167 14.3593 87.5091 14.4542C87.8055 14.5469 88.0901 14.6377 88.3731 14.7264C88.6516 14.815 88.901 14.924 89.1207 15.0503C89.3378 15.1789 89.5166 15.3374 89.6512 15.5282C89.7853 15.7158 89.8523 15.9584 89.8523 16.2566C89.8523 16.5239 89.8065 16.7699 89.7163 16.9885C89.6249 17.2061 89.4939 17.3945 89.3239 17.5517C89.1495 17.7084 88.9433 17.8306 88.6975 17.9183C88.4509 18.0039 88.1689 18.0471 87.8532 18.0471C87.4765 18.0471 87.1576 17.9966 86.8939 17.8931C86.6311 17.791 86.4085 17.6767 86.2233 17.5545C86.0399 17.4309 85.884 17.3186 85.763 17.2165C85.6396 17.1127 85.5309 17.0633 85.4336 17.0633C85.3704 17.0633 85.3115 17.0799 85.2613 17.113C85.2075 17.1479 85.1631 17.1913 85.1281 17.2396L84.7413 17.8693C85.1113 18.2603 85.5591 18.5725 86.0811 18.8013C86.6049 19.0328 87.1778 19.1484 87.8146 19.1484C88.3362 19.1484 88.7977 19.0676 89.2062 18.9091C89.617 18.7497 89.9617 18.5304 90.2398 18.2528C90.5182 17.9751 90.7326 17.6475 90.8788 17.2704C91.025 16.8952 91.0981 16.4941 91.0981 16.0642C91.0981 15.658 91.0321 15.3151 90.8949 15.037C90.7626 14.7594 90.5821 14.5253 90.3624 14.3345C90.1395 14.142 89.8903 13.9837 89.6091 13.8588C89.3297 13.7325 89.0426 13.6202 88.748 13.5194C88.4533 13.42 88.1661 13.3228 87.8854 13.2284C87.6056 13.1352 87.355 13.0241 87.1307 12.8974C86.9092 12.7689 86.7332 12.6156 86.5982 12.4356C86.4659 12.2551 86.3978 12.0293 86.3978 11.7548C86.3978 11.5399 86.4366 11.3413 86.5169 11.1559C86.5923 10.9727 86.7069 10.8109 86.8603 10.6752C87.0123 10.5373 87.2017 10.4303 87.4313 10.3506C87.6596 10.2695 87.9204 10.2295 88.2168 10.2295C88.5312 10.2295 88.8007 10.2686 89.0226 10.3457C89.2442 10.424 89.4326 10.5093 89.5895 10.6024C89.7465 10.696 89.8776 10.7813 89.9798 10.8592C90.0838 10.9367 90.1723 10.9761 90.2468 10.9761C90.323 10.9761 90.3822 10.9574 90.4248 10.9243C90.4741 10.8912 90.5161 10.8375 90.5565 10.7704L90.8788 10.142C90.5384 9.81291 90.1469 9.56198 89.6953 9.38779C89.2437 9.21583 88.7468 9.12891 88.1979 9.12891V9.12891ZM35.7082 9.1485C34.9736 9.1485 34.2962 9.27487 33.6881 9.52563C33.0755 9.77505 32.5537 10.123 32.1178 10.5682C31.6837 11.0137 31.3474 11.5412 31.1102 12.1515C30.8702 12.7632 30.75 13.4254 30.75 14.1414C30.75 14.8579 30.8702 15.5203 31.1102 16.1306C31.3474 16.7414 31.6837 17.2703 32.1178 17.7154C32.5537 18.1614 33.0755 18.5083 33.6881 18.7586C34.2962 19.0081 34.9736 19.1337 35.7082 19.1337C36.4468 19.1337 37.1205 19.0081 37.7304 18.7586C38.3363 18.5083 38.8581 18.1614 39.2895 17.7154C39.7227 17.2703 40.059 16.7414 40.2971 16.1306C40.5366 15.5203 40.6559 14.8579 40.6559 14.1414C40.6559 13.4254 40.5366 12.7632 40.2971 12.1515C40.059 11.5412 39.7227 11.0159 39.2895 10.5717C38.8581 10.1288 38.3363 9.78124 37.7304 9.52913C37.1205 9.27657 36.4468 9.1485 35.7082 9.1485ZM60.2959 9.23666V19.0399H61.616V15.3729H63.187C63.7771 15.3729 64.299 15.2977 64.7538 15.1441C65.2139 14.9914 65.5923 14.7786 65.9008 14.5046C66.208 14.2319 66.4394 13.9051 66.6008 13.5271C66.7614 13.1478 66.8405 12.7292 66.8405 12.2747C66.8405 11.8143 66.7669 11.3955 66.6162 11.0229C66.4714 10.6495 66.2465 10.3311 65.9443 10.0665C65.646 9.80184 65.2628 9.5973 64.8063 9.45356C64.3484 9.30982 63.8085 9.23666 63.187 9.23666H60.2959V9.23666ZM68.5144 9.23666V19.0399H74.0857V17.9239H69.843V9.23666H68.5144ZM75.4542 9.23666V15.1952C75.4542 15.7607 75.5426 16.2856 75.7198 16.7701C75.9019 17.2529 76.1597 17.6693 76.4997 18.0226C76.8373 18.3759 77.2463 18.6538 77.7315 18.8531C78.2145 19.0542 78.757 19.1554 79.3606 19.1554C79.9611 19.1554 80.5013 19.0542 80.987 18.8531C81.4686 18.6538 81.8806 18.3759 82.216 18.0226C82.5496 17.6693 82.8079 17.2529 82.9882 16.7701C83.1676 16.2856 83.2572 15.7607 83.2572 15.1952V9.23666H81.9364V15.1952C81.9364 15.6049 81.8807 15.9818 81.7606 16.3231C81.6466 16.6665 81.4783 16.9598 81.2581 17.2061C81.0388 17.4528 80.7658 17.6439 80.4474 17.7805C80.1259 17.918 79.766 17.9855 79.3606 17.9855C78.9525 17.9855 78.588 17.916 78.2682 17.7763C77.9476 17.6388 77.6736 17.446 77.4512 17.1984C77.2328 16.953 77.0649 16.6598 76.9474 16.3168C76.8308 15.9742 76.7722 15.5988 76.7722 15.1882V9.23666H75.4542ZM42.0867 9.25765V19.0259H43.6899V13.0261C43.6899 12.9111 43.6852 12.7807 43.678 12.6378C43.6713 12.4963 43.6616 12.3534 43.6486 12.211L48.7574 18.7153C48.8457 18.8321 48.938 18.9142 49.0335 18.9595C49.1272 19.0025 49.2482 19.0259 49.3908 19.0259H50.3298V9.25765H48.7308V15.1952C48.7308 15.3259 48.7329 15.4673 48.7392 15.6178C48.745 15.7696 48.7596 15.9224 48.7784 16.081L43.6486 9.54732C43.5992 9.48598 43.5543 9.43535 43.5126 9.39549C43.4732 9.35878 43.4316 9.32909 43.3886 9.30803C43.3464 9.2888 43.2987 9.27468 43.2436 9.26884C43.1888 9.26126 43.1215 9.25767 43.0403 9.25767H42.0867V9.25765ZM52.3037 9.25765V19.0259H58.4642V17.5748H54.1353V14.8096H57.5449V13.4117H54.1353V10.7032H58.4642V9.25765H52.3037ZM61.6167 10.2841H63.187C63.9686 10.2841 64.5503 10.4587 64.9359 10.8102C65.318 11.1627 65.5133 11.6505 65.5133 12.2747C65.5133 12.5765 65.4636 12.853 65.3641 13.1024C65.2632 13.3536 65.1156 13.5692 64.9205 13.7496C64.7241 13.9283 64.4779 14.0694 64.1904 14.1701C63.9016 14.2695 63.5677 14.3199 63.187 14.3199H61.6167V10.2841ZM35.7089 10.6969C36.1869 10.6969 36.616 10.776 36.9954 10.9327C37.3788 11.0917 37.7024 11.3167 37.9666 11.6149C38.2325 11.9122 38.4346 12.2751 38.579 12.7001C38.7184 13.1251 38.7906 13.6068 38.7906 14.1414C38.7906 14.6779 38.7184 15.1574 38.579 15.5842C38.4346 16.01 38.2325 16.3701 37.9666 16.6652C37.7024 16.9599 37.3788 17.1858 36.9954 17.3425C36.616 17.5015 36.1869 17.5804 35.7089 17.5804C35.2322 17.5804 34.8029 17.5015 34.4182 17.3425C34.0352 17.1858 33.7114 16.9599 33.4428 16.6652C33.1737 16.3701 32.9696 16.01 32.8248 15.5842C32.6795 15.1574 32.6097 14.6779 32.6097 14.1414C32.6097 13.6068 32.6795 13.1251 32.8248 12.7001C32.9696 12.2751 33.1737 11.9122 33.4428 11.6149C33.7114 11.3167 34.0352 11.0917 34.4182 10.9327C34.8029 10.776 35.2322 10.6969 35.7089 10.6969Z" fill="white"/>
</svg>
