<svg width="56" height="52" viewBox="0 0 56 52" fill="none" xmlns="http://www.w3.org/2000/svg">
<rect width="56" height="51.6303" fill="black" fill-opacity="0" transform="translate(0 0.185059)"/>
<rect width="56" height="51.6303" fill="black" fill-opacity="0" transform="translate(0 0.185059)"/>
<path d="M25.8151 0.185059V2.60523C24.395 2.88254 23.0168 3.36993 21.8487 4.15145L20.1681 2.47077L17.0756 5.49598L18.8235 7.24388C18.0924 8.35313 17.5546 9.60523 17.2773 10.9414H15.0588V15.2439H17.2773C17.5546 16.58 18.0924 17.8321 18.8235 18.9414L17.0756 20.6893L20.1681 23.7145L21.8487 22.0338C23.0168 22.8153 24.395 23.3027 25.8151 23.58V26.0002H30.1176V23.58C31.4286 23.2943 32.6639 22.8237 33.7479 22.101L35.3613 23.7145L38.3866 20.6893L36.7731 19.0758C37.5462 17.933 38.1008 16.6388 38.3866 15.2439H40.8739V10.9414H38.3866C38.1008 9.5464 37.5462 8.25229 36.7731 7.10943L38.3866 5.49598L35.3613 2.47077L33.7479 4.08422C32.6639 3.36153 31.4286 2.89094 30.1176 2.60523V0.185059H25.8151ZM27.8319 6.63884C31.4202 6.63884 34.2857 9.50439 34.2857 13.0926C34.2857 16.6809 31.4202 19.5464 27.8319 19.5464C24.2437 19.5464 21.3782 16.6809 21.3782 13.0926C21.3782 9.50439 24.2437 6.63884 27.8319 6.63884ZM10.7563 26.0002V28.3531C9.31092 28.6304 7.96639 29.1683 6.78992 29.9666L5.10924 28.2859L2.01681 31.3111L3.76471 33.059C3.03361 34.1767 2.4958 35.4119 2.21849 36.7565H0V41.059H2.21849C2.4958 42.4035 3.03361 43.6388 3.76471 44.7565L2.01681 46.5044L5.10924 49.5296L6.78992 47.8489C7.96639 48.6472 9.31092 49.1851 10.7563 49.4624V51.8153H15.0588V49.3951C16.3697 49.1094 17.605 48.6388 18.6891 47.9162L20.3025 49.5296L23.3277 46.5044L21.7143 44.8909C22.479 43.7649 23.0336 42.496 23.3277 41.1262L25.8824 41.059L25.7479 36.7565L23.3277 36.8237C23.042 35.4035 22.5042 34.0842 21.7143 32.9246L23.3277 31.3111L20.3025 28.2859L18.6891 29.8993C17.605 29.1767 16.3697 28.7061 15.0588 28.4204V26.0002H10.7563ZM40.8739 26.0002V28.4204C39.4538 28.6977 38.0756 29.1851 36.9076 29.9666L35.2269 28.2859L32.1345 31.3111L33.8824 33.059C33.1513 34.1683 32.6134 35.4204 32.3361 36.7565H30.1176V41.059H32.3361C32.6134 42.3951 33.1513 43.6472 33.8824 44.7565L32.1345 46.5044L35.2269 49.5296L36.9076 47.8489C38.0756 48.6304 39.4538 49.1178 40.8739 49.3951V51.8153H45.1765V49.3951C46.479 49.1094 47.6555 48.5632 48.7395 47.8489L50.4202 49.5296L53.4454 46.5044L51.8319 44.8909C52.605 43.7649 53.1513 42.5044 53.4454 41.1262L56 41.059L55.8655 36.7565L53.4454 36.8237C53.1681 35.4204 52.5378 34.143 51.7647 32.9918L53.4454 31.3111L50.4202 28.2859L48.7395 29.9666C47.6723 29.2691 46.4538 28.7733 45.1765 28.4876V26.0002H40.8739ZM12.7731 32.454C16.3613 32.454 19.2269 35.3195 19.2269 38.9077C19.2269 42.496 16.3613 45.3615 12.7731 45.3615C9.18487 45.3615 6.31933 42.496 6.31933 38.9077C6.31933 35.3195 9.18487 32.454 12.7731 32.454ZM42.8908 32.454C46.479 32.454 49.3445 35.3195 49.3445 38.9077C49.3445 42.496 46.479 45.3615 42.8908 45.3615C39.3025 45.3615 36.437 42.496 36.437 38.9077C36.437 35.3195 39.3025 32.454 42.8908 32.454Z" fill="white"/>
</svg>
