<svg width="14" height="10" viewBox="0 0 14 10" fill="none" xmlns="http://www.w3.org/2000/svg">
<path d="M5.66016 6.83203C6.73568 6.39453 7.76562 6.17578 8.75 6.17578C9.73438 6.17578 10.7552 6.39453 11.8125 6.83203C12.888 7.2513 13.4258 7.80729 13.4258 8.5V9.67578H4.07422V8.5C4.07422 7.80729 4.60286 7.2513 5.66016 6.83203ZM3.5 3.82422H5.25V5H3.5V6.75H2.32422V5H0.574219V3.82422H2.32422V2.07422H3.5V3.82422ZM10.3906 4.31641C9.9349 4.77214 9.38802 5 8.75 5C8.11198 5 7.5651 4.77214 7.10938 4.31641C6.65365 3.86068 6.42578 3.3138 6.42578 2.67578C6.42578 2.03776 6.65365 1.49089 7.10938 1.03516C7.5651 0.561198 8.11198 0.324219 8.75 0.324219C9.38802 0.324219 9.9349 0.561198 10.3906 1.03516C10.8464 1.49089 11.0742 2.03776 11.0742 2.67578C11.0742 3.3138 10.8464 3.86068 10.3906 4.31641Z" fill="#263238"/>
</svg>
