<svg width="12" height="12" viewBox="0 0 12 12" fill="none" xmlns="http://www.w3.org/2000/svg">
<path d="M10.0742 7.75V6.57422H8.92578V7.75H10.0742ZM10.0742 10.0742V8.92578H8.92578V10.0742H10.0742ZM6.57422 3.07422V1.92578H5.42578V3.07422H6.57422ZM6.57422 5.42578V4.25H5.42578V5.42578H6.57422ZM6.57422 7.75V6.57422H5.42578V7.75H6.57422ZM6.57422 10.0742V8.92578H5.42578V10.0742H6.57422ZM3.07422 5.42578V4.25H1.92578V5.42578H3.07422ZM3.07422 7.75V6.57422H1.92578V7.75H3.07422ZM3.07422 10.0742V8.92578H1.92578V10.0742H3.07422ZM7.75 5.42578H11.25V11.25H0.75V3.07422H4.25V1.92578L6 0.175781L7.75 1.92578V5.42578Z" fill="#263238"/>
</svg>
