<svg width="14" height="12" viewBox="0 0 14 12" fill="none" xmlns="http://www.w3.org/2000/svg">
<path d="M6.42578 8.32422V6.57422H0.574219V5.42578H6.42578V3.67578L8.75 6L6.42578 8.32422ZM12.25 0.75C12.5781 0.75 12.8516 0.86849 13.0703 1.10547C13.3073 1.32422 13.4258 1.59766 13.4258 1.92578V10.1016C13.4258 10.4115 13.3073 10.6849 13.0703 10.9219C12.8333 11.1406 12.5599 11.25 12.25 11.25H1.75C1.4401 11.25 1.16667 11.1406 0.929688 10.9219C0.692708 10.6849 0.574219 10.4115 0.574219 10.1016V7.75H1.75V10.1016H12.25V1.89844H1.75V4.25H0.574219V1.92578C0.574219 1.61589 0.692708 1.34245 0.929688 1.10547C1.16667 0.86849 1.4401 0.75 1.75 0.75H12.25Z" fill="#263238"/>
</svg>
