<svg width="120" height="23" viewBox="0 0 120 23" fill="none" xmlns="http://www.w3.org/2000/svg">
<rect width="120" height="22.0035" fill="black" fill-opacity="0"/>
<rect width="96" height="17.6028" fill="black" fill-opacity="0" transform="translate(0 22.0034) scale(1.25 -1.25)"/>
<rect width="96" height="17.6028" fill="black" fill-opacity="0" transform="translate(0 22.0034) scale(1.25 -1.25)"/>
<path d="M40.7083 0.441175H34.2613V8.83616H27.5501V0.441175H21.103V21.5622H27.5501V13.2543H34.2613V21.5622H40.7083V0.441175V0.441175ZM63.135 17.3182V0.441175H56.6879V21.5622H68.3455L69.3149 17.3182H63.135V17.3182ZM51.9217 0.441175H45.4746V21.5622H51.9217V0.441175ZM78.0581 0.441175H71.614V21.5622H78.0581V0.441175V0.441175ZM109.843 5.83173C109.843 4.68219 110.993 4.15094 112.845 4.15094C114.877 4.15094 117.086 4.59515 118.586 5.21644L118.058 0.618258C116.377 0.26409 114.877 -3.47148e-05 112.142 -3.47148e-05C106.932 -3.47148e-05 103.399 2.05595 103.399 6.36299C103.399 13.7855 113.469 12.2848 113.469 15.7304C113.469 17.0541 112.493 17.7594 110.11 17.7594C107.994 17.7594 104.723 17.0541 102.781 16.0816L103.489 20.9439C105.431 21.6522 108.078 22.0034 110.2 22.0034C115.585 22.0034 120 20.2356 120 14.9321C120 7.8667 109.843 9.19033 109.843 5.83173V5.83173ZM91.6575 16.5258C97.6574 16.5258 101.457 13.4313 101.457 8.04079C101.457 2.12198 97.3963 -3.47148e-05 90.7721 -3.47148e-05C88.2119 -3.47148e-05 85.1204 0.17705 82.9144 0.441175V21.5622H89.3615V16.5258H91.6575V16.5258ZM95.1002 8.13083C95.1002 10.8681 93.7765 12.726 90.4179 12.726H89.3615V3.99787C89.7366 3.97686 90.0878 3.97685 90.4179 3.97685C93.5964 3.97685 95.1002 5.47757 95.1002 8.13083ZM8.74315 16.5258C14.746 16.5258 18.5428 13.4313 18.5428 8.04079C18.5428 2.12198 14.4819 -3.47148e-05 7.86073 -3.47148e-05C5.29751 -3.47148e-05 2.20905 0.17705 -2.01512e-06 0.441175V21.5622H6.44706V16.5258H8.74315V16.5258ZM12.1888 8.13083C12.1888 10.8681 10.8622 12.726 7.50657 12.726H6.44706V3.99787C6.82224 3.97686 7.17641 3.97685 7.50657 3.97685C10.6851 3.97685 12.1888 5.47757 12.1888 8.13083Z" fill="#0B5ED7"/>
</svg>
