<svg width="18" height="19" viewBox="0 0 18 19" fill="none" xmlns="http://www.w3.org/2000/svg">
<rect width="18" height="18" fill="black" fill-opacity="0" transform="translate(0 0.00195312)"/>
<path d="M4.965 8.09445C6.045 10.217 7.785 11.9495 9.9075 13.037L11.5575 11.387C11.76 11.1845 12.06 11.117 12.3225 11.207C13.1625 11.4845 14.07 11.6345 15 11.6345C15.4125 11.6345 15.75 11.972 15.75 12.3845V15.002C15.75 15.4145 15.4125 15.752 15 15.752C7.9575 15.752 2.25 10.0445 2.25 3.00195C2.25 2.58945 2.5875 2.25195 3 2.25195H5.625C6.0375 2.25195 6.375 2.58945 6.375 3.00195C6.375 3.93945 6.525 4.83945 6.8025 5.67945C6.885 5.94195 6.825 6.23445 6.615 6.44445L4.965 8.09445Z" fill="#424242"/>
</svg>
