<svg width="54" height="54" viewBox="0 0 54 54" fill="none" xmlns="http://www.w3.org/2000/svg">
<rect width="54" height="54" fill="black" fill-opacity="0"/>
<rect width="50" height="37.5" fill="black" fill-opacity="0" transform="translate(2 8)"/>
<rect width="50" height="37.5" fill="black" fill-opacity="0" transform="translate(2 8)"/>
<path d="M8.25 8C4.82389 8 2 10.8239 2 14.25V39.25C2 42.6761 4.82389 45.5 8.25 45.5H45.75C49.1761 45.5 52 42.6761 52 39.25V14.25C52 10.8239 49.1761 8 45.75 8H8.25ZM8.25 12.1667H45.75C46.9056 12.1667 47.8333 13.0944 47.8333 14.25V39.25C47.8333 40.4056 46.9056 41.3333 45.75 41.3333H8.25C7.0944 41.3333 6.16667 40.4056 6.16667 39.25V14.25C6.16667 13.0944 7.0944 12.1667 8.25 12.1667ZM10.3333 24.6667C9.18587 24.6667 8.25 25.6025 8.25 26.75C8.25 27.8975 9.18587 28.8333 10.3333 28.8333C11.4808 28.8333 12.4167 27.8975 12.4167 26.75C12.4167 25.6025 11.4808 24.6667 10.3333 24.6667Z" fill="#0091EA"/>
</svg>
