<svg width="18" height="12" viewBox="0 0 18 12" fill="none" xmlns="http://www.w3.org/2000/svg">
<path d="M9.00391 0.375C5.25391 0.375 2.05141 2.7075 0.753906 6C2.05141 9.2925 5.25391 11.625 9.00391 11.625C12.7539 11.625 15.9564 9.2925 17.2539 6C15.9564 2.7075 12.7539 0.375 9.00391 0.375ZM9.00391 9.75C6.93391 9.75 5.25391 8.07 5.25391 6C5.25391 3.93 6.93391 2.25 9.00391 2.25C11.0739 2.25 12.7539 3.93 12.7539 6C12.7539 8.07 11.0739 9.75 9.00391 9.75ZM9.00391 3.75C7.75891 3.75 6.75391 4.755 6.75391 6C6.75391 7.245 7.75891 8.25 9.00391 8.25C10.2489 8.25 11.2539 7.245 11.2539 6C11.2539 4.755 10.2489 3.75 9.00391 3.75Z" fill="#0091EA"/>
</svg>
