<svg width="120" height="40" viewBox="0 0 120 40" fill="none" xmlns="http://www.w3.org/2000/svg">
<rect width="120" height="39.8431" fill="black" fill-opacity="0"/>
<rect width="120" height="39.8431" fill="black" fill-opacity="0"/>
<rect width="120" height="39.8431" fill="black" fill-opacity="0"/>
<path d="M119.926 9.48615C121.56 18.8541 96.0576 31.1223 62.9574 36.8872C29.8613 42.6522 1.7061 39.7269 0.0740285 30.355C-1.55672 20.9858 23.9526 8.72153 57.0488 2.95787C90.1463 -2.80974 118.296 0.115596 119.926 9.48615Z" fill="#034EA2"/>
<rect width="86.8314" height="13.2873" fill="black" fill-opacity="0" transform="translate(16.9062 13.2578)"/>
<rect width="86.8314" height="13.2873" fill="black" fill-opacity="0" transform="translate(16.9062 13.2578)"/>
<path d="M88.7736 23.3931L88.6036 13.6521H91.6752V25.9295H87.2589L84.1938 15.8537H84.1279L84.298 25.9295H81.2461V13.6521H85.8536L88.7051 23.3931H88.7736Z" fill="white"/>
<path d="M32.9398 14.8017L31.2405 26.0587H27.8906L30.1911 13.6521H35.7095L37.9994 26.0587H34.6628L33.0096 14.8017H32.9398Z" fill="white"/>
<path d="M47.4109 23.136L48.9441 13.6521H54.0037L54.2727 26.0587H51.172L51.0903 14.9045H51.0257L48.952 26.0587H45.8039L43.7288 14.9045H43.6616L43.5838 26.0587H40.4766L40.7508 13.6521H45.8131L47.345 23.136H47.4109Z" fill="white"/>
<path d="M22.6673 22.5585C22.7886 22.8591 22.7516 23.2453 22.695 23.4787C22.5908 23.8913 22.3113 24.3118 21.4861 24.3118C20.7083 24.3118 20.2363 23.8663 20.2363 23.1847V21.9837H16.9089L16.9063 22.9448C16.9063 25.7106 19.0841 26.5451 21.4175 26.5451C23.6613 26.5451 25.5095 25.7778 25.8035 23.7107C25.9538 22.6389 25.8418 21.9376 25.7903 21.6726C25.267 19.0755 20.558 18.3004 20.2073 16.8476C20.148 16.5984 20.1651 16.3348 20.1941 16.1937C20.2798 15.7982 20.5514 15.3618 21.3279 15.3618C22.0529 15.3618 22.4814 15.8101 22.4814 16.4877C22.4814 16.7157 22.4814 17.2536 22.4814 17.2536H25.5755V16.3822C25.5755 13.6797 23.1498 13.2578 21.3925 13.2578C19.1856 13.2578 17.3822 13.9868 17.0526 16.0065C16.9629 16.5641 16.9498 17.0611 17.0803 17.6834C17.6221 20.2185 22.0292 20.9528 22.6673 22.5585Z" fill="white"/>
<path d="M63.0103 22.5361C63.1329 22.8341 63.0934 23.2098 63.038 23.4431C62.9365 23.8544 62.6597 24.2684 61.8397 24.2684C61.0724 24.2684 60.6044 23.8228 60.6044 23.1571L60.6018 21.9666H57.3086L57.3047 22.9145C57.3047 25.6526 59.4628 26.4792 61.7724 26.4792C63.9925 26.4792 65.8236 25.7225 66.1123 23.6738C66.2626 22.61 66.1558 21.9178 66.1018 21.6581C65.581 19.0848 60.9195 18.3175 60.5728 16.8793C60.5135 16.6314 60.5306 16.3704 60.5609 16.2372C60.6492 15.8391 60.9155 15.4133 61.6841 15.4133C62.4026 15.4133 62.8218 15.851 62.8218 16.5233C62.8218 16.7488 62.8218 17.2813 62.8218 17.2813H65.8922V16.4192C65.8922 13.7456 63.4862 13.3264 61.7461 13.3264C59.5643 13.3264 57.7753 14.0462 57.4523 16.0514C57.3627 16.6011 57.3535 17.0889 57.4813 17.7085C58.0153 20.2172 62.3789 20.9463 63.0103 22.5361Z" fill="white"/>
<path d="M73.4312 24.2024C74.292 24.2024 74.561 23.6066 74.6203 23.302C74.6453 23.1676 74.6519 22.9883 74.6493 22.8274V13.6467H77.7869V22.5466C77.7934 22.7747 77.771 23.244 77.7605 23.3614C77.5403 25.6776 75.7092 26.4291 73.4298 26.4291C71.1478 26.4291 69.3154 25.6776 69.0979 23.3614C69.0873 23.244 69.0649 22.7747 69.0715 22.5466V13.6467H72.2064V22.8274C72.2064 22.9883 72.2117 23.1689 72.2354 23.302C72.3027 23.6066 72.5637 24.2024 73.4312 24.2024Z" fill="white"/>
<path d="M99.3145 24.0721C100.214 24.0721 100.527 23.5039 100.585 23.173C100.608 23.0306 100.614 22.8579 100.613 22.701V20.9002H99.3396V19.0888H103.739V22.4189C103.736 22.6509 103.731 22.8223 103.694 23.2363C103.487 25.4932 101.529 26.2987 99.3304 26.2987C97.1275 26.2987 95.1724 25.4932 94.9628 23.2363C94.9272 22.8223 94.9219 22.6509 94.918 22.4189L94.9206 17.1944C94.9206 16.9743 94.9483 16.5841 94.972 16.3771C95.2475 14.0582 97.1275 13.312 99.3304 13.312C101.531 13.312 103.457 14.0542 103.685 16.3771C103.726 16.7726 103.712 17.1944 103.712 17.1944V17.6084H100.584V16.9136C100.587 16.915 100.58 16.6183 100.543 16.4417C100.49 16.1675 100.252 15.5373 99.3066 15.5373C98.4023 15.5373 98.1373 16.1332 98.0714 16.4417C98.0331 16.6052 98.0186 16.8266 98.0186 17.027V22.701C98.016 22.8579 98.0252 23.0306 98.0503 23.173C98.1043 23.5052 98.4168 24.0721 99.3145 24.0721Z" fill="white"/>
</svg>
