<svg width="56" height="46" viewBox="0 0 56 46" fill="none" xmlns="http://www.w3.org/2000/svg">
<rect width="56" height="45.8161" fill="black" fill-opacity="0" transform="translate(0 0.0917969)"/>
<rect width="56" height="45.8161" fill="black" fill-opacity="0" transform="translate(0 0.0917969)"/>
<path d="M0 0.0917969V32.9459H3.86519V3.95699H44.4497V0.0917969H0ZM5.79779 5.88959V38.7437H27.0563V34.8785H9.66298V11.7176L28.0226 25.7138L46.3823 11.7176V21.6901L49.636 24.9815L50.2098 25.5553L50.2475 5.88959H5.79779ZM13.4527 9.75478H42.5926L28.0226 20.8521L13.4527 9.75478ZM46.9032 27.7143L44.1704 30.4471L48.6018 34.8785H30.9215V38.7437H48.6018L44.1704 43.1751L46.9032 45.9079L56 36.8111L46.9032 27.7143Z" fill="white"/>
</svg>
