<svg width="54" height="54" viewBox="0 0 54 54" fill="none" xmlns="http://www.w3.org/2000/svg">
<rect width="54" height="54" fill="black" fill-opacity="0"/>
<rect width="33.3333" height="50" fill="black" fill-opacity="0" transform="translate(10 2)"/>
<rect width="33.3333" height="50" fill="black" fill-opacity="0" transform="translate(10 2)"/>
<path d="M14.1667 2C13.0762 2 11.9613 2.38249 11.1719 3.17187C10.3825 3.96126 10 5.07617 10 6.16667V47.8333C10 48.9238 10.3825 50.0387 11.1719 50.8281C11.9613 51.6175 13.0762 52 14.1667 52H39.1667C40.2572 52 41.3721 51.6175 42.1615 50.8281C42.9508 50.0387 43.3333 48.9238 43.3333 47.8333V6.16667C43.3333 5.07617 42.9508 3.96126 42.1615 3.17187C41.3721 2.38249 40.2572 2 39.1667 2H14.1667ZM14.1667 6.16667H39.1667V47.8333H14.1667V6.16667ZM26.6667 8.25C25.5192 8.25 24.5833 9.18587 24.5833 10.3333C24.5833 11.4808 25.5192 12.4167 26.6667 12.4167C27.8141 12.4167 28.75 11.4808 28.75 10.3333C28.75 9.18587 27.8141 8.25 26.6667 8.25ZM22.5 41.5833V45.75H30.8333V41.5833H22.5Z" fill="#0091EA"/>
</svg>
