<svg width="54" height="54" viewBox="0 0 54 54" fill="none" xmlns="http://www.w3.org/2000/svg">
<rect width="54" height="54" fill="black" fill-opacity="0"/>
<rect width="32.4074" height="50" fill="black" fill-opacity="0" transform="translate(11 2)"/>
<rect width="32.4074" height="50" fill="black" fill-opacity="0" transform="translate(11 2)"/>
<path d="M19.8481 2L19.5283 3.30208C19.5283 3.30208 19.1685 4.74088 18.5688 6.42708C17.9825 8.07422 17.0831 9.94271 16.5434 10.4896C13.3986 11.0755 11 13.7643 11 17V37C11 40.1055 13.212 42.6771 16.1703 43.4062L16.117 43.4583C16.65 43.9466 17.6494 45.8867 18.249 47.5729C18.8487 49.2591 19.2085 50.6979 19.2085 50.6979L19.5283 52H33.1202L33.44 50.6979C33.44 50.6979 33.7198 49.2396 34.2928 47.5729C34.8658 45.9062 35.8586 44.0182 36.4249 43.5104L36.3716 43.4583C39.4098 42.7878 41.7018 40.1641 41.7018 37V25.3333H43.4074V18.6667H41.7018V17C41.7018 13.9336 39.543 11.3555 36.6381 10.5937L36.7447 10.4896C36.1451 9.95573 35.1057 8.05469 34.4527 6.375C33.7998 4.69531 33.3867 3.25 33.3867 3.25L33.0669 2H19.8481ZM22.5132 5.33333H30.5617C30.7483 5.95833 30.7882 6.38802 31.2546 7.57292C31.6011 8.46484 31.9942 9.42838 32.4806 10.3333H20.6476C21.1073 9.40234 21.4938 8.4388 21.8202 7.52083C22.2333 6.34896 22.3399 5.96484 22.5132 5.33333ZM17.8226 13.6667H34.8791C36.7647 13.6667 38.2905 15.1576 38.2905 17V37C38.2905 38.8424 36.7647 40.3333 34.8791 40.3333H17.8226C15.9371 40.3333 14.4113 38.8424 14.4113 37V17C14.4113 15.1576 15.9371 13.6667 17.8226 13.6667ZM20.3278 43.6667H32.2674C31.801 44.6042 31.4079 45.6133 31.0947 46.5312C30.695 47.6901 30.615 48.0286 30.4551 48.6667H22.14C21.9668 48.0352 21.9135 47.651 21.5004 46.4792C21.174 45.5612 20.8008 44.5977 20.3278 43.6667Z" fill="#0091EA"/>
</svg>
