<svg width="120" height="22" viewBox="0 0 120 22" fill="none" xmlns="http://www.w3.org/2000/svg">
<path d="M42.7508 21.127C38.4039 21.127 34.3687 19.8234 31.6752 17.4058C29.6402 15.5793 28.6624 13.0983 28.6624 10.5448C28.6624 8.02241 29.6824 5.52434 31.6749 3.70747C34.1764 1.42771 38.5928 0 42.7508 0C47.3523 0 51.0352 1.15904 53.8506 3.71374C55.8537 5.53157 56.8222 8.01855 56.8222 10.5451C56.8222 12.994 55.7945 15.6019 53.8506 17.4058C51.2289 19.839 47.1089 21.127 42.7508 21.127V18.3405C45.0581 18.3405 47.1983 17.5439 48.693 16.0566C50.1774 14.5795 50.8689 12.7639 50.8689 10.5448C50.8689 8.41904 50.1229 6.43157 48.693 5.02193C47.2183 3.5694 45.027 2.75205 42.7508 2.75205C40.4677 2.75205 38.2749 3.56096 36.799 5.02193C35.3769 6.43108 34.6289 8.42434 34.6289 10.5448C34.6289 12.6588 35.3855 14.6508 36.799 16.0569C38.2761 17.5263 40.4612 18.3407 42.7508 18.3407V21.1272V21.127ZM10.9788 0.0101205C8.6535 0.0101205 6.01181 0.44506 3.76723 1.44747C1.69566 2.37181 4.90957e-07 3.86675 4.90957e-07 6.34506C-0.000963365 8.57711 1.41759 9.88434 1.37904 9.84819C1.98241 10.4036 2.95374 11.3494 5.49325 11.9048C6.62819 12.153 9.0547 12.5342 11.4711 12.7867C13.8696 13.0398 16.2301 13.2802 17.1916 13.5236C17.9554 13.7181 19.2386 13.9829 19.2386 15.4224C19.2386 16.8561 17.8867 17.2937 17.6518 17.3887C17.4171 17.4814 15.7954 18.2255 12.8802 18.2255C10.728 18.2255 8.14048 17.5783 7.19735 17.241C6.11012 16.854 4.96964 16.3422 3.90578 15.0427C3.64121 14.7205 3.22386 13.8345 3.22386 12.9571H0.585543V20.3499H3.51807V19.3511C3.51807 19.2373 3.66024 18.7696 4.15253 18.992C4.76506 19.2704 6.56313 19.9863 8.44313 20.3788C9.98458 20.7012 10.9786 20.9323 12.8949 20.9323C16.0217 20.9323 17.7014 20.4229 18.8627 20.0913C19.9566 19.7781 21.3084 19.2157 22.4065 18.34C23.0012 17.8665 24.3053 16.6528 24.3053 14.4496C24.3053 12.3349 23.1704 11.0224 22.7711 10.6231C22.2272 10.079 21.5629 9.65735 20.8706 9.33229C20.2675 9.04843 19.3157 8.70747 18.5369 8.51687C17.0253 8.14578 13.6075 7.68795 11.973 7.51687C10.259 7.33783 7.28578 7.09157 6.09831 6.7241C5.73831 6.61253 5.00434 6.26289 5.00434 5.41084C5.00434 4.80482 5.34 4.29108 6.00337 3.8759C7.05639 3.21614 9.18337 2.80602 11.4005 2.80602C14.0217 2.79639 16.2414 3.39566 17.6535 4.02699C18.1337 4.24145 18.6957 4.5494 19.1419 4.91374C19.6455 5.32434 20.3525 6.17759 20.6082 7.36771H22.9769V0.93253H20.332V1.68048C20.332 1.92193 20.0827 2.23566 19.6111 1.97639C18.4275 1.35542 15.081 0.0156627 10.9783 0.0101205H10.9788ZM68.9388 1.17952L81.8405 12.8229L81.708 4.98361C81.6949 3.95566 81.5055 3.52651 80.3937 3.52651H77.9679V1.18145H88.9993V3.52651H86.633C85.499 3.52651 85.4275 3.88916 85.4137 4.98361L85.6137 19.9627H81.8359L66.9757 6.7L66.9788 16.1125C66.9918 17.1357 67.0398 17.6176 68.094 17.6176H70.7434V19.9617H59.9096V17.6178H62.4422C63.3882 17.6178 63.3506 16.7159 63.3506 16.0593V5.07277C63.3506 4.36361 63.2511 3.52819 61.7658 3.52819H59.7108V1.17952H68.9388ZM101.605 17.6133C101.708 17.6133 102.169 17.6 102.258 17.5728C102.513 17.4933 102.685 17.3116 102.765 17.1222C102.799 17.0427 102.816 16.6908 102.816 16.6145L102.818 12.9084C102.818 12.8193 102.811 12.7807 102.66 12.5822C102.494 12.3653 95.9022 4.89542 95.6005 4.56651C95.2258 4.15807 94.5679 3.52675 93.5684 3.52675H91.2761V1.18072H104.213V3.52386H102.653C102.293 3.52386 102.053 3.86602 102.361 4.24627C102.361 4.24627 106.713 9.45277 106.755 9.50723C106.795 9.56265 106.83 9.5759 106.885 9.5253C106.94 9.47349 111.347 4.29398 111.382 4.25301C111.591 4.00193 111.449 3.52651 110.997 3.52651H109.398V1.18072H120V3.52651H117.631C116.772 3.52651 116.422 3.68554 115.776 4.41639C115.48 4.75084 108.818 12.3549 108.637 12.561C108.542 12.6687 108.55 12.8188 108.55 12.908V16.6135C108.55 16.6887 108.567 17.041 108.601 17.12C108.681 17.3104 108.855 17.492 109.109 17.5706C109.199 17.5981 109.653 17.6116 109.756 17.6116H112.179V19.9571H99.3089V17.6113L101.605 17.6133H101.605Z" fill="black"/>
</svg>
