<svg width="17" height="10" viewBox="0 0 17 10" fill="none" xmlns="http://www.w3.org/2000/svg">
<rect width="17" height="10" fill="black" fill-opacity="0"/>
<path d="M16.6126 0.678125C16.7293 0.2875 16.6126 0 16.0508 0H14.192C13.7186 0 13.5009 0.246875 13.3841 0.521875C13.3841 0.521875 12.4373 2.80625 11.0992 4.2875C10.6669 4.71562 10.4681 4.85313 10.2314 4.85313C10.1146 4.85313 9.93471 4.71562 9.93471 4.325V0.678125C9.93471 0.209375 9.80217 0 9.41084 0H6.48849C6.19184 0 6.01511 0.21875 6.01511 0.421875C6.01511 0.865625 6.68416 0.96875 6.75359 2.21875V4.93125C6.75359 5.525 6.64629 5.63437 6.4096 5.63437C5.77842 5.63437 4.24466 3.34063 3.33577 0.715625C3.15273 0.20625 2.97284 0 2.4963 0H0.637488C0.1073 0 1.20387e-08 0.246875 1.20387e-08 0.521875C1.20387e-08 1.00937 0.631176 3.43125 2.93813 6.63125C4.47504 8.81563 6.63997 10 8.60924 10C9.7927 10 9.93787 9.7375 9.93787 9.28438C9.93787 7.19688 9.83057 7 10.4239 7C10.6984 7 11.1718 7.1375 12.2764 8.19063C13.5387 9.44063 13.747 10 14.4539 10H16.3128C16.8429 10 17.1112 9.7375 16.9566 9.21875C16.6031 8.12813 14.2141 5.88438 14.1068 5.73438C13.8322 5.38438 13.9111 5.22813 14.1068 4.91563C14.1099 4.9125 16.379 1.75 16.6126 0.678125Z" fill="white"/>
</svg>
